<svg width="24" height="20" viewBox="0 0 24 20" fill="none" xmlns="http://www.w3.org/2000/svg">
<path d="M7.78147 17.0318H4.96888C4.19235 17.0318 3.56259 16.402 3.56259 15.6255V4.37513C3.56259 3.5986 4.19235 2.96884 4.96888 2.96884H7.78147C8.55801 2.96884 9.18777 2.33908 9.18777 1.56254C9.18777 0.786006 8.55933 0.15625 7.78147 0.15625H4.96888C2.63883 0.15625 0.75 2.04508 0.75 4.37513V15.6255C0.75 17.9555 2.63883 19.8444 4.96888 19.8444H7.78147C8.55801 19.8444 9.18777 19.2146 9.18777 18.4381C9.18777 17.6615 8.55933 17.0318 7.78147 17.0318ZM22.8376 9.00712L17.2124 3.38194C16.6627 2.83217 15.7727 2.83304 15.2238 3.38194C14.6745 3.93127 14.6745 4.82119 15.2238 5.37053L18.4517 8.59402H9.18777C8.40991 8.59402 7.78147 9.22246 7.78147 10.0003C7.78147 10.7782 8.41035 11.4066 9.18777 11.4066H18.4517L15.2269 14.6314C14.6776 15.1807 14.6776 16.0707 15.2269 16.62C15.7763 17.1693 16.6662 17.1693 17.2155 16.62L22.8407 10.9948C23.3869 10.4442 23.3869 9.55645 22.8376 9.00712Z" fill="#3B3F54"/>
</svg>
