<svg width="32" height="48" viewBox="0 0 32 48" fill="none" xmlns="http://www.w3.org/2000/svg">
<path d="M24.0648 9.72826C23.9132 9.74765 23.7578 9.75928 23.5946 9.75928C22.5841 9.75928 21.6824 9.31727 21.0645 8.63487C20.4466 9.31727 19.5449 9.75928 18.5306 9.75928C17.5162 9.75928 16.6146 9.31727 15.9966 8.63487C15.3787 9.31727 14.4809 9.75928 13.4627 9.75928C12.4522 9.75928 11.5506 9.31727 10.9326 8.63487C10.3147 9.31727 9.41303 9.75928 8.39712 9.75928C8.23933 9.75928 8.08038 9.74765 7.92609 9.72826C5.77612 9.44134 4.75885 6.91337 5.90865 5.09881L8.13673 1.5833C8.33494 1.26727 8.68899 1.07422 9.06714 1.07422H22.9339C23.3108 1.07422 23.6645 1.26723 23.8627 1.5833L26.0896 5.09881C27.2439 6.91725 26.2218 9.44134 24.0648 9.72826ZM24.228 10.9573C24.3602 10.938 24.5506 10.9069 24.7061 10.8682V18.4443C24.7061 19.813 23.5907 20.9258 22.2188 20.9258H9.78224C8.40878 20.9258 7.29493 19.813 7.29493 18.4443V10.8682C7.44534 10.9069 7.60041 10.938 7.76014 10.9573H7.7648C7.96923 10.9845 8.1822 11 8.39712 11C8.88059 11 9.34696 10.9263 9.78224 10.7906V15.9629H22.2188V10.7945C22.654 10.9263 23.1165 11 23.5946 11C23.8122 11 24.0221 10.9845 24.228 10.9573Z" fill="#707699"/>
<path d="M4.07209 43.084C3.52009 43.084 3.02409 42.988 2.58409 42.796C2.15209 42.596 1.81209 42.324 1.56409 41.98C1.31609 41.628 1.18809 41.224 1.18009 40.768H2.34409C2.38409 41.16 2.54409 41.492 2.82409 41.764C3.11209 42.028 3.52809 42.16 4.07209 42.16C4.59209 42.16 5.00009 42.032 5.29609 41.776C5.60009 41.512 5.75209 41.176 5.75209 40.768C5.75209 40.448 5.66409 40.188 5.48809 39.988C5.31209 39.788 5.09209 39.636 4.82809 39.532C4.56409 39.428 4.20809 39.316 3.76009 39.196C3.20809 39.052 2.76409 38.908 2.42809 38.764C2.10009 38.62 1.81609 38.396 1.57609 38.092C1.34409 37.78 1.22809 37.364 1.22809 36.844C1.22809 36.388 1.34409 35.984 1.57609 35.632C1.80809 35.28 2.13209 35.008 2.54809 34.816C2.97209 34.624 3.45609 34.528 4.00009 34.528C4.78409 34.528 5.42409 34.724 5.92009 35.116C6.42409 35.508 6.70809 36.028 6.77209 36.676H5.57209C5.53209 36.356 5.36409 36.076 5.06809 35.836C4.77209 35.588 4.38009 35.464 3.89209 35.464C3.43609 35.464 3.06409 35.584 2.77609 35.824C2.48809 36.056 2.34409 36.384 2.34409 36.808C2.34409 37.112 2.42809 37.36 2.59609 37.552C2.77209 37.744 2.98409 37.892 3.23209 37.996C3.48809 38.092 3.84409 38.204 4.30009 38.332C4.85209 38.484 5.29609 38.636 5.63209 38.788C5.96809 38.932 6.25609 39.16 6.49609 39.472C6.73609 39.776 6.85609 40.192 6.85609 40.72C6.85609 41.128 6.74809 41.512 6.53209 41.872C6.31609 42.232 5.99609 42.524 5.57209 42.748C5.14809 42.972 4.64809 43.084 4.07209 43.084ZM9.79506 37.324V41.2C9.79506 41.52 9.86306 41.748 9.99906 41.884C10.1351 42.012 10.3711 42.076 10.7071 42.076H11.5111V43H10.5271C9.91906 43 9.46306 42.86 9.15906 42.58C8.85506 42.3 8.70306 41.84 8.70306 41.2V37.324H7.85106V36.424H8.70306V34.768H9.79506V36.424H11.5111V37.324H9.79506ZM15.7022 43.108C15.0862 43.108 14.5262 42.968 14.0222 42.688C13.5262 42.408 13.1342 42.012 12.8462 41.5C12.5662 40.98 12.4262 40.38 12.4262 39.7C12.4262 39.028 12.5702 38.436 12.8582 37.924C13.1542 37.404 13.5542 37.008 14.0582 36.736C14.5622 36.456 15.1262 36.316 15.7502 36.316C16.3742 36.316 16.9382 36.456 17.4422 36.736C17.9462 37.008 18.3422 37.4 18.6302 37.912C18.9262 38.424 19.0742 39.02 19.0742 39.7C19.0742 40.38 18.9222 40.98 18.6182 41.5C18.3222 42.012 17.9182 42.408 17.4062 42.688C16.8942 42.968 16.3262 43.108 15.7022 43.108ZM15.7022 42.148C16.0942 42.148 16.4622 42.056 16.8062 41.872C17.1502 41.688 17.4262 41.412 17.6342 41.044C17.8502 40.676 17.9582 40.228 17.9582 39.7C17.9582 39.172 17.8542 38.724 17.6462 38.356C17.4382 37.988 17.1662 37.716 16.8302 37.54C16.4942 37.356 16.1302 37.264 15.7382 37.264C15.3382 37.264 14.9702 37.356 14.6342 37.54C14.3062 37.716 14.0422 37.988 13.8422 38.356C13.6422 38.724 13.5422 39.172 13.5422 39.7C13.5422 40.236 13.6382 40.688 13.8302 41.056C14.0302 41.424 14.2942 41.7 14.6222 41.884C14.9502 42.06 15.3102 42.148 15.7022 42.148ZM21.6019 37.492C21.7939 37.116 22.0659 36.824 22.4179 36.616C22.7779 36.408 23.2139 36.304 23.7259 36.304V37.432H23.4379C22.2139 37.432 21.6019 38.096 21.6019 39.424V43H20.5099V36.424H21.6019V37.492ZM30.9865 39.46C30.9865 39.668 30.9745 39.888 30.9505 40.12H25.6945C25.7345 40.768 25.9545 41.276 26.3545 41.644C26.7625 42.004 27.2545 42.184 27.8305 42.184C28.3025 42.184 28.6945 42.076 29.0065 41.86C29.3265 41.636 29.5505 41.34 29.6785 40.972H30.8545C30.6785 41.604 30.3265 42.12 29.7985 42.52C29.2705 42.912 28.6145 43.108 27.8305 43.108C27.2065 43.108 26.6465 42.968 26.1505 42.688C25.6625 42.408 25.2785 42.012 24.9985 41.5C24.7185 40.98 24.5785 40.38 24.5785 39.7C24.5785 39.02 24.7145 38.424 24.9865 37.912C25.2585 37.4 25.6385 37.008 26.1265 36.736C26.6225 36.456 27.1905 36.316 27.8305 36.316C28.4545 36.316 29.0065 36.452 29.4865 36.724C29.9665 36.996 30.3345 37.372 30.5905 37.852C30.8545 38.324 30.9865 38.86 30.9865 39.46ZM29.8585 39.232C29.8585 38.816 29.7665 38.46 29.5825 38.164C29.3985 37.86 29.1465 37.632 28.8265 37.48C28.5145 37.32 28.1665 37.24 27.7825 37.24C27.2305 37.24 26.7585 37.416 26.3665 37.768C25.9825 38.12 25.7625 38.608 25.7065 39.232H29.8585Z" fill="#707699"/>
</svg>
