<svg width="38" height="58" viewBox="0 0 38 58" fill="none" xmlns="http://www.w3.org/2000/svg">
<circle cx="19" cy="34" r="2" fill="#006EE3"/>
<path d="M29.2643 12.3814C29.0714 12.4061 28.8735 12.4209 28.6658 12.4209C27.3798 12.4209 26.2322 11.8583 25.4457 10.9898C24.6593 11.8583 23.5117 12.4209 22.2207 12.4209C20.9297 12.4209 19.7822 11.8583 18.9957 10.9898C18.2092 11.8583 17.0666 12.4209 15.7707 12.4209C14.4846 12.4209 13.3371 11.8583 12.5506 10.9898C11.7641 11.8583 10.6166 12.4209 9.32361 12.4209C9.12279 12.4209 8.92048 12.4061 8.72411 12.3814C5.98779 12.0163 4.69309 8.79883 6.15646 6.4894L8.9922 2.01511C9.24447 1.61289 9.69508 1.36719 10.1764 1.36719H27.8249C28.3047 1.36719 28.7548 1.61284 29.0071 2.01511L31.8414 6.4894C33.3104 8.80377 32.0095 12.0163 29.2643 12.3814ZM29.4721 13.9457C29.6402 13.921 29.8826 13.8816 30.0805 13.8322V23.4746C30.0805 25.2166 28.6609 26.6328 26.9148 26.6328H11.0865C9.33845 26.6328 7.92082 25.2166 7.92082 23.4746V13.8322C8.11225 13.8816 8.30961 13.921 8.5129 13.9457H8.51884C8.77902 13.9803 9.05007 14 9.32361 14C9.93893 14 10.5325 13.9062 11.0865 13.7335V20.3164H26.9148V13.7385C27.4688 13.9062 28.0574 14 28.6658 14C28.9428 14 29.2099 13.9803 29.4721 13.9457Z" fill="#006EE3"/>
<path d="M4.74625 54.098C4.06492 54.098 3.44892 53.9813 2.89825 53.748C2.35692 53.5147 1.92758 53.1787 1.61025 52.74C1.29292 52.3013 1.12958 51.7833 1.12025 51.186H3.22025C3.24825 51.5873 3.38825 51.9047 3.64025 52.138C3.90158 52.3713 4.25625 52.488 4.70425 52.488C5.16158 52.488 5.52092 52.3807 5.78225 52.166C6.04358 51.942 6.17425 51.6527 6.17425 51.298C6.17425 51.0087 6.08558 50.7707 5.90825 50.584C5.73092 50.3973 5.50692 50.2527 5.23625 50.15C4.97492 50.038 4.61092 49.9167 4.14425 49.786C3.50958 49.5993 2.99158 49.4173 2.59025 49.24C2.19825 49.0533 1.85758 48.778 1.56825 48.414C1.28825 48.0407 1.14825 47.546 1.14825 46.93C1.14825 46.3513 1.29292 45.8473 1.58225 45.418C1.87158 44.9887 2.27758 44.662 2.80025 44.438C3.32292 44.2047 3.92025 44.088 4.59225 44.088C5.60025 44.088 6.41692 44.3353 7.04225 44.83C7.67692 45.3153 8.02692 45.9967 8.09225 46.874H5.93625C5.91758 46.538 5.77292 46.2627 5.50225 46.048C5.24092 45.824 4.89092 45.712 4.45225 45.712C4.06958 45.712 3.76158 45.81 3.52825 46.006C3.30425 46.202 3.19225 46.4867 3.19225 46.86C3.19225 47.1213 3.27625 47.3407 3.44425 47.518C3.62158 47.686 3.83625 47.826 4.08825 47.938C4.34958 48.0407 4.71358 48.162 5.18025 48.302C5.81492 48.4887 6.33292 48.6753 6.73425 48.862C7.13558 49.0487 7.48092 49.3287 7.77025 49.702C8.05958 50.0753 8.20425 50.5653 8.20425 51.172C8.20425 51.6947 8.06892 52.18 7.79825 52.628C7.52758 53.076 7.13092 53.4353 6.60825 53.706C6.08558 53.9673 5.46492 54.098 4.74625 54.098ZM12.1855 47.854V51.606C12.1855 51.8673 12.2462 52.0587 12.3675 52.18C12.4982 52.292 12.7128 52.348 13.0115 52.348H13.9215V54H12.6895C11.0375 54 10.2115 53.1973 10.2115 51.592V47.854H9.2875V46.244H10.2115V44.326H12.1855V46.244H13.9215V47.854H12.1855ZM18.7752 54.126C18.0286 54.126 17.3566 53.9627 16.7592 53.636C16.1619 53.3 15.6906 52.8287 15.3452 52.222C15.0092 51.6153 14.8412 50.9153 14.8412 50.122C14.8412 49.3287 15.0139 48.6287 15.3592 48.022C15.7139 47.4153 16.1946 46.9487 16.8012 46.622C17.4079 46.286 18.0846 46.118 18.8312 46.118C19.5779 46.118 20.2546 46.286 20.8612 46.622C21.4679 46.9487 21.9439 47.4153 22.2892 48.022C22.6439 48.6287 22.8212 49.3287 22.8212 50.122C22.8212 50.9153 22.6392 51.6153 22.2752 52.222C21.9206 52.8287 21.4352 53.3 20.8192 53.636C20.2126 53.9627 19.5312 54.126 18.7752 54.126ZM18.7752 52.418C19.1299 52.418 19.4612 52.334 19.7692 52.166C20.0866 51.9887 20.3386 51.7273 20.5252 51.382C20.7119 51.0367 20.8052 50.6167 20.8052 50.122C20.8052 49.3847 20.6092 48.82 20.2172 48.428C19.8346 48.0267 19.3632 47.826 18.8032 47.826C18.2432 47.826 17.7719 48.0267 17.3892 48.428C17.0159 48.82 16.8292 49.3847 16.8292 50.122C16.8292 50.8593 17.0112 51.4287 17.3752 51.83C17.7486 52.222 18.2152 52.418 18.7752 52.418ZM26.219 47.448C26.471 47.0373 26.7976 46.7153 27.199 46.482C27.6096 46.2487 28.0763 46.132 28.599 46.132V48.19H28.081C27.465 48.19 26.9983 48.3347 26.681 48.624C26.373 48.9133 26.219 49.4173 26.219 50.136V54H24.259V46.244H26.219V47.448ZM37.1291 49.954C37.1291 50.234 37.1105 50.486 37.0731 50.71H31.4031C31.4498 51.27 31.6458 51.7087 31.9911 52.026C32.3365 52.3433 32.7611 52.502 33.2651 52.502C33.9931 52.502 34.5111 52.1893 34.8191 51.564H36.9331C36.7091 52.3107 36.2798 52.9267 35.6451 53.412C35.0105 53.888 34.2311 54.126 33.3071 54.126C32.5605 54.126 31.8885 53.9627 31.2911 53.636C30.7031 53.3 30.2411 52.8287 29.9051 52.222C29.5785 51.6153 29.4151 50.9153 29.4151 50.122C29.4151 49.3193 29.5785 48.6147 29.9051 48.008C30.2318 47.4013 30.6891 46.9347 31.2771 46.608C31.8651 46.2813 32.5418 46.118 33.3071 46.118C34.0445 46.118 34.7025 46.2767 35.2811 46.594C35.8691 46.9113 36.3218 47.364 36.6391 47.952C36.9658 48.5307 37.1291 49.198 37.1291 49.954ZM35.0991 49.394C35.0898 48.89 34.9078 48.4887 34.5531 48.19C34.1985 47.882 33.7645 47.728 33.2511 47.728C32.7658 47.728 32.3551 47.8773 32.0191 48.176C31.6925 48.4653 31.4918 48.8713 31.4171 49.394H35.0991Z" fill="#006EE3"/>
</svg>
