<svg width="24" height="17" viewBox="0 0 24 17" fill="none" xmlns="http://www.w3.org/2000/svg">
<path fill-rule="evenodd" clip-rule="evenodd" d="M22.2753 6.64639H22.2756C22.1443 6.84488 22.0967 7.0836 22.0567 7.33237C22.0076 7.63572 21.9559 7.92671 21.8488 8.21225C21.7198 8.55438 21.5035 8.93529 21.1269 9.23347C20.7356 8.17404 20.1657 7.20051 19.4547 6.34993C19.9034 6.17039 20.3438 6.17327 20.706 6.23302C21.0065 6.28271 21.2846 6.38354 21.5718 6.4927C21.8074 6.58261 22.0381 6.66075 22.2753 6.64581V6.64639Z" fill="#3B3F54"/>
<path fill-rule="evenodd" clip-rule="evenodd" d="M17.9062 2.27649L17.9059 2.27706L17.9062 2.27649C17.8918 2.51434 17.97 2.74501 18.0599 2.98057C18.1691 3.26783 18.2696 3.54561 18.3196 3.84637C18.3793 4.2089 18.3819 4.64985 18.2021 5.09855C17.3498 4.38872 16.3754 3.82052 15.3148 3.43042C15.6139 3.05066 15.9968 2.8332 16.3403 2.70365C16.6256 2.5965 16.9166 2.54479 17.2199 2.49567C17.4687 2.45574 17.7077 2.40806 17.9062 2.27649Z" fill="#3B3F54"/>
<path fill-rule="evenodd" clip-rule="evenodd" d="M21.5872 10.949C22.062 11.0191 22.44 11.2405 22.7224 11.4724C22.958 11.6657 23.1481 11.8918 23.3423 12.1302C23.5012 12.3258 23.662 12.5088 23.8749 12.6148H21.7305C21.7299 12.0469 21.6805 11.4902 21.5872 10.949Z" fill="#3B3F54"/>
<path fill-rule="evenodd" clip-rule="evenodd" d="M5.96847 2.27649L5.96876 2.27706V2.27649C6.16697 2.40806 6.40597 2.45574 6.65503 2.49567C6.95809 2.54479 7.24937 2.5965 7.53462 2.70365C7.87819 2.83292 8.26111 3.05095 8.55986 3.43042C7.49929 3.82023 6.5249 4.38872 5.67259 5.09855C5.49277 4.64985 5.49564 4.2089 5.55539 3.84637C5.60509 3.54561 5.70592 3.26783 5.81507 2.98057C5.90499 2.74501 5.98312 2.51434 5.96847 2.27649Z" fill="#3B3F54"/>
<path fill-rule="evenodd" clip-rule="evenodd" d="M1.59924 6.64631H1.59953H1.59924C1.83681 6.66067 2.06748 6.58254 2.30303 6.49263C2.5903 6.38347 2.86808 6.28293 3.16884 6.23294C3.53108 6.17319 3.97145 6.17061 4.42015 6.34986C3.70889 7.20044 3.13925 8.17397 2.74772 9.23368C2.37112 8.93521 2.15481 8.5543 2.02611 8.21217C1.91897 7.92664 1.86726 7.63564 1.81814 7.33229C1.77821 7.08352 1.73052 6.84481 1.59924 6.64631Z" fill="#3B3F54"/>
<path fill-rule="evenodd" clip-rule="evenodd" d="M0 12.6148C0.212861 12.5088 0.37344 12.3258 0.532583 12.1302C0.726772 11.8918 0.916939 11.666 1.15249 11.4724C1.43487 11.2408 1.81262 11.0191 2.28746 10.949C2.1941 11.4902 2.1447 12.0469 2.14412 12.6148H0Z" fill="#3B3F54"/>
<path fill-rule="evenodd" clip-rule="evenodd" d="M11.9372 0.677612H11.9375C12.0437 0.890473 12.2267 1.05077 12.4223 1.2102C12.6605 1.40438 12.8866 1.59455 13.0802 1.83011C13.3131 2.11392 13.5361 2.49512 13.605 2.97427C13.0629 2.8812 12.5059 2.83236 11.9375 2.83236C11.369 2.83236 10.812 2.8812 10.2699 2.97427C10.3386 2.49512 10.5615 2.11392 10.7947 1.83011C10.9881 1.59455 11.2144 1.40438 11.4526 1.2102C11.6482 1.05077 11.8312 0.890473 11.9372 0.677612Z" fill="#3B3F54"/>
<path fill-rule="evenodd" clip-rule="evenodd" d="M9.94598 12.6171L10.6828 12.6148C10.7796 11.9926 10.5903 11.5135 9.96063 11.6278C9.43006 11.724 8.86042 12.2511 8.51599 12.6148L9.48751 12.6108C9.59581 12.5396 9.80752 12.4583 9.89456 12.5189C9.92702 12.5413 9.94426 12.5735 9.94598 12.6171Z" fill="#3B3F54"/>
<path fill-rule="evenodd" clip-rule="evenodd" d="M13.2594 12.6148H14.1787C14.2223 11.5295 14.0477 10.4083 13.543 9.43851C13.0839 8.55604 12.325 7.95624 11.3428 7.81117C9.90881 7.59975 8.46187 8.20673 7.23842 9.07512C5.90639 10.0208 4.80704 11.3051 3.84644 12.6148L5.06069 12.6133C6.15401 11.0638 8.66841 8.71116 10.5181 8.69565C11.1075 8.69105 11.7071 8.82951 12.15 9.22479C12.4712 9.5109 12.8604 10.0676 12.8415 10.5189C12.83 10.7869 12.5924 10.8688 12.3646 10.7861C12.1877 10.7211 12.0627 10.5597 11.9389 10.3896C11.5364 9.83723 10.9085 9.56663 10.2199 9.66085C9.39863 9.77317 8.38057 10.4109 7.72389 10.9909C7.1577 11.4913 6.63776 12.0385 6.1474 12.6148H7.45301C7.93158 12.0374 8.43688 11.5447 9.08638 11.14C9.29205 11.0121 9.54513 10.8765 9.81114 10.7852C10.4825 10.5545 11.1504 10.6128 11.4468 11.4485C11.5634 11.7771 11.5807 12.0652 11.5465 12.5932V12.6148H12.4344L12.4367 12.588C12.4373 12.2988 12.431 12.1037 12.4571 11.817C12.4795 11.57 12.5562 11.314 12.7857 11.2836C13.2732 11.1816 13.2499 12.2663 13.2594 12.6148Z" fill="#3B3F54"/>
<path fill-rule="evenodd" clip-rule="evenodd" d="M15.1453 12.6147H16.0723C16.1171 11.6079 16.0306 10.4146 15.7049 9.37268C15.6405 9.167 15.567 8.96764 15.4837 8.77719C15.2863 8.32676 15.0209 7.91914 14.7043 7.54254C14.3524 7.12428 13.9333 6.74797 13.4608 6.45152C13.3212 6.3639 13.1767 6.28347 13.0273 6.21051V6.21022C12.8794 6.13783 12.7262 6.07291 12.5685 6.01718L12.5677 6.01689C10.7628 5.37601 8.93726 5.83189 7.40587 6.66467C7.10712 6.82726 6.81985 7.00392 6.54638 7.18949C6.27291 7.37478 6.01236 7.56954 5.76762 7.76833H5.76733L5.76704 7.76861C5.47633 8.00445 5.11266 8.32705 4.75272 8.70796C4.68177 8.78351 4.61167 8.85992 4.54359 8.93719C4.36147 9.14373 4.08082 9.43329 4.16412 9.73262C4.23019 9.9699 4.53641 9.89981 4.64299 9.81822C4.80701 9.73032 4.98684 9.591 5.14052 9.46087C5.34908 9.28392 5.54585 9.09404 5.75239 8.91565C6.58689 8.19204 7.457 7.63389 8.3139 7.25643C8.50062 7.17398 8.68763 7.10015 8.87406 7.03466C9.05963 6.96945 9.24434 6.91286 9.42762 6.86517H9.42848C11.0231 6.45094 12.7555 6.71925 13.8652 8.01968C14.9338 9.27185 15.1289 10.9489 15.1453 12.6147ZM3.64475 11.1991C3.74414 11.106 3.84584 10.9845 3.95155 10.8504C4.09949 10.6628 4.11414 10.4812 4.05582 10.3499C4.03399 10.3008 4.00182 10.2589 3.96275 10.2261C3.92426 10.1937 3.8783 10.1707 3.82889 10.1595C3.70852 10.1319 3.56432 10.175 3.44166 10.3241C3.3032 10.4924 3.11217 10.7806 3.0731 11.0354C3.06563 11.0828 3.06391 11.1293 3.06879 11.173C3.07339 11.2155 3.08488 11.2557 3.10384 11.2925L3.10413 11.2927C3.13515 11.3522 3.18772 11.3841 3.2581 11.3867C3.27275 11.3872 3.28855 11.3867 3.30521 11.3847C3.32158 11.3829 3.33939 11.3798 3.35835 11.3752V11.3755L3.35921 11.3752C3.45372 11.3522 3.54823 11.289 3.64475 11.1991Z" fill="#3B3F54"/>
<path fill-rule="evenodd" clip-rule="evenodd" d="M17.4638 12.6153H17.4739C17.5707 12.6205 17.739 12.5757 17.8361 12.4119C17.8556 12.3789 17.8723 12.3419 17.8846 12.2991C17.8976 12.2563 17.9065 12.2071 17.9102 12.152L17.9111 12.1408C17.9846 9.56605 17.1961 7.43543 15.8574 5.98705C15.5975 5.7064 15.3165 5.45045 15.0166 5.22208C14.7167 4.99399 14.399 4.79348 14.0649 4.62256L14.0598 4.61998L14.0595 4.61969C12.9346 4.0443 11.6583 3.82369 10.4058 3.92997C10.1616 3.95066 9.9186 3.98369 9.67873 4.02879C9.4383 4.07389 9.19958 4.13134 8.9646 4.20057L8.96115 4.20172C7.67307 4.58292 6.47462 5.33899 5.49764 6.33148C5.30747 6.52481 5.12564 6.72704 4.95357 6.93645C4.86825 7.04073 4.78494 7.14673 4.70422 7.25474C5.38934 6.66356 6.12416 6.14505 6.89287 5.7334C7.06609 5.64062 7.24017 5.55358 7.41482 5.47228C7.58977 5.39156 7.76672 5.31601 7.94568 5.24678L7.94683 5.24621C8.62592 4.98193 9.29524 4.81359 9.96513 4.73862C10.6347 4.66335 11.3046 4.68116 11.9852 4.78946C12.4695 4.86645 12.942 4.99342 13.368 5.17066C13.4505 5.20513 13.5318 5.24161 13.6113 5.28039C13.6901 5.31831 13.7673 5.35881 13.8432 5.40162L13.8443 5.4019V5.40248C15.3435 6.2229 16.3851 7.90769 16.8439 9.80965C16.9332 10.1805 17.0005 10.5594 17.0447 10.9412C17.0889 11.3227 17.1102 11.7084 17.1076 12.0934L17.1073 12.1152C17.1148 12.3217 17.1855 12.4938 17.3064 12.5714C17.3291 12.586 17.3535 12.5972 17.3794 12.6044H17.3796C17.4061 12.6122 17.4342 12.6159 17.4638 12.6153Z" fill="#3B3F54"/>
<path fill-rule="evenodd" clip-rule="evenodd" d="M14.7833 4.03564C18.3879 5.22634 20.9928 8.61574 21.0077 12.6147H19.2244C19.3425 9.12161 17.8177 5.96834 14.7833 4.03564Z" fill="#3B3F54"/>
<path fill-rule="evenodd" clip-rule="evenodd" d="M4.31786 15.4201H3.59655L3.41787 16.0487H2.84277L3.60344 13.6411H4.33223L5.11444 16.0487H4.51435L4.31786 15.4201ZM3.6787 15.0131H4.23226C4.0869 14.5428 3.99297 14.22 3.95017 14.045H3.94299L3.82866 14.5023L3.6787 15.0131ZM6.96785 15.4201H6.24625L6.06786 16.0487H5.49276L6.25343 13.6411H6.98193L7.76414 16.0487H7.16434L6.96785 15.4201ZM6.32841 15.0131H6.88196C6.73689 14.5428 6.64267 14.22 6.59987 14.045H6.59269L6.47836 14.5023L6.32841 15.0131ZM8.31396 16.0378V13.6736C8.5521 13.638 8.8069 13.6199 9.07836 13.6199C9.59141 13.6199 9.95997 13.727 10.1832 13.9422C10.4064 14.1571 10.5175 14.438 10.5175 14.7841C10.5175 15.1941 10.3909 15.5112 10.1366 15.7361C9.88241 15.9613 9.4903 16.0737 8.96059 16.0737C8.71526 16.0737 8.49982 16.0619 8.31396 16.0378ZM8.86751 14.0666V15.6344C8.89854 15.6416 8.96518 15.6451 9.06773 15.6451C9.34264 15.6451 9.55579 15.5724 9.70632 15.4276C9.85684 15.2831 9.93182 15.076 9.93182 14.8057C9.93182 14.5581 9.86345 14.3696 9.72585 14.2398C9.58854 14.1099 9.39033 14.045 9.13179 14.045C9.0235 14.045 8.93559 14.0519 8.86751 14.0666ZM11.1105 13.6411H11.664V14.5664H12.6102V13.6411H13.1641V16.0487H12.6102V15.0447H11.664V16.0487H11.1105V13.6411ZM15.1709 15.4201H14.4496L14.2709 16.0487H13.6958L14.4568 13.6411H15.1853L15.9675 16.0487H15.3674L15.1709 15.4201ZM14.5317 15.0131H15.0853C14.9399 14.5428 14.846 14.22 14.8032 14.045H14.796L14.6817 14.5023L14.5317 15.0131ZM17.8209 15.4201H17.0993L16.9209 16.0487H16.3458L17.1065 13.6411H17.835L18.6172 16.0487H18.0174L17.8209 15.4201ZM17.1814 15.0131H17.735C17.5899 14.5428 17.4957 14.22 17.4529 14.045H17.4457L17.3314 14.5023L17.1814 15.0131ZM19.167 16.0487V13.6736C19.3695 13.638 19.6183 13.6199 19.9136 13.6199C20.2778 13.6199 20.5398 13.6802 20.6992 13.8006C20.8587 13.9206 20.9385 14.0927 20.9385 14.3165C20.9385 14.4498 20.8986 14.5701 20.8182 14.6779C20.738 14.7856 20.6338 14.8614 20.5065 14.9059V14.92C20.6564 14.976 20.7647 15.1237 20.8314 15.363C20.954 15.7939 21.0207 16.0225 21.0313 16.0487H20.4671C20.4195 15.9593 20.3623 15.7726 20.2956 15.4879C20.2623 15.3449 20.2172 15.2452 20.1601 15.188C20.1029 15.1309 20.0113 15.1021 19.8849 15.1021H19.7137V16.0487H19.167ZM19.7137 14.045V14.7057H19.942C20.0802 14.7057 20.1891 14.6744 20.2689 14.6118C20.3488 14.5492 20.3884 14.4653 20.3884 14.3593C20.3884 14.2533 20.3528 14.1711 20.2807 14.1137C20.2089 14.0559 20.1063 14.0272 19.9742 14.0272C19.8444 14.0272 19.7576 14.0332 19.7137 14.045Z" fill="#3B3F54"/>
</svg>
