<svg width="18" height="22" viewBox="0 0 18 22" fill="none" xmlns="http://www.w3.org/2000/svg">
<path d="M10.2851 1.375V2.2C13.218 2.83723 15.4277 5.61172 15.4277 8.9375V9.74531C15.4277 11.7691 16.1228 13.7156 17.3763 15.2281L17.6736 15.5848C18.011 15.993 18.0954 16.5688 17.8865 17.0629C17.6776 17.557 17.2196 17.875 16.7134 17.875H1.28563C0.779412 17.875 0.320236 17.557 0.112846 17.0629C-0.0945446 16.5688 -0.0115925 15.993 0.324776 15.5848L0.622724 15.2281C1.87783 13.7156 2.57128 11.7691 2.57128 9.74531V8.9375C2.57128 5.61172 4.74482 2.83723 7.71385 2.2V1.375C7.71385 0.615742 8.28837 0 8.99949 0C9.71061 0 10.2851 0.615742 10.2851 1.375ZM8.99949 22C8.31649 22 7.66162 21.7121 7.1795 21.1965C6.69739 20.6809 6.42821 19.9418 6.42821 19.25H11.5708C11.5708 19.9418 11.3016 20.6809 10.8195 21.1965C10.3374 21.7121 9.64633 22 8.99949 22Z" fill="#3B3F54"/>
</svg>
