<svg width="27" height="24" viewBox="0 0 27 24" fill="none" xmlns="http://www.w3.org/2000/svg">
<path d="M5.10937 0.75C5.61475 0.75 6.0498 1.10991 6.14648 1.60737L6.2124 2.15625H24.7002C25.5923 2.15625 26.3042 3.04614 26.0537 3.94307L23.6807 12.3823C23.5093 12.9888 22.9556 13.4062 22.3271 13.4062H8.39209L8.79639 15.5156H22.3359C22.9204 15.5156 23.3906 15.9858 23.3906 16.5703C23.3906 17.1548 22.9204 17.625 22.3359 17.625H7.88232C7.4165 17.625 6.98144 17.2646 6.88476 16.7681L4.23662 2.85938H1.94531C1.36304 2.85938 0.890625 2.38696 0.890625 1.80469C0.890625 1.22241 1.36304 0.75 1.94531 0.75H5.10937ZM6.51562 21.1406C6.51562 19.9761 7.46045 19.0312 8.625 19.0312C9.78955 19.0312 10.7344 19.9761 10.7344 21.1406C10.7344 22.3052 9.78955 23.25 8.625 23.25C7.46045 23.25 6.51562 22.3052 6.51562 21.1406ZM23.3906 21.1406C23.3906 22.3052 22.4458 23.25 21.2812 23.25C20.1167 23.25 19.1719 22.3052 19.1719 21.1406C19.1719 19.9761 20.1167 19.0312 21.2812 19.0312C22.4458 19.0312 23.3906 19.9761 23.3906 21.1406Z" fill="#707699"/>
</svg>
