<svg width="7" height="7" viewBox="0 0 7 7" fill="none" xmlns="http://www.w3.org/2000/svg">
<path opacity="0.6" fill-rule="evenodd" clip-rule="evenodd" d="M1.6432 0.935976C1.44794 0.740714 1.13136 0.740714 0.936094 0.935976C0.740832 1.13124 0.740832 1.44782 0.936094 1.64308L3.16508 3.87207L0.936094 6.10106C0.740832 6.29632 0.740832 6.6129 0.936094 6.80816C1.13136 7.00343 1.44794 7.00343 1.6432 6.80816L3.87219 4.57918L6.10105 6.80804C6.29631 7.0033 6.61289 7.0033 6.80816 6.80804C7.00342 6.61277 7.00342 6.29619 6.80816 6.10093L4.5793 3.87207L6.80816 1.64321C7.00342 1.44795 7.00342 1.13137 6.80816 0.936104C6.61289 0.740842 6.29631 0.740842 6.10105 0.936104L3.87219 3.16496L1.6432 0.935976Z" fill="#373737"/>
</svg>
