<svg width="10" height="10" viewBox="0 0 10 10" fill="none" xmlns="http://www.w3.org/2000/svg">
<path d="M9.19083 7.93361C9.5387 8.28149 9.5387 8.84504 9.19083 9.19292C9.01828 9.36685 8.79008 9.45312 8.56187 9.45312C8.33367 9.45312 8.10602 9.36616 7.93236 9.19222L4.99965 6.26104L2.06722 9.19152C1.89328 9.36685 1.66536 9.45312 1.43743 9.45312C1.2095 9.45312 0.981856 9.36685 0.80778 9.19152C0.459907 8.84365 0.459907 8.2801 0.80778 7.93222L3.74105 4.99896L0.80778 2.06708C0.459907 1.71921 0.459907 1.15565 0.80778 0.80778C1.15565 0.459907 1.71921 0.459907 2.06708 0.80778L4.99965 3.74244L7.93292 0.809171C8.28079 0.461298 8.84435 0.461298 9.19222 0.809171C9.54009 1.15704 9.54009 1.7206 9.19222 2.06847L6.25895 5.00174L9.19083 7.93361Z" fill="#3B3F54" stroke="#EBF2F9" stroke-width="0.4"/>
</svg>
