<svg width="70" height="18" viewBox="0 0 70 18" fill="none" xmlns="http://www.w3.org/2000/svg">
<path d="M1.7284 8.812C1.7284 7.996 1.9124 7.264 2.2804 6.616C2.6484 5.96 3.1484 5.448 3.7804 5.08C4.4204 4.712 5.1284 4.528 5.9044 4.528C6.8164 4.528 7.6124 4.748 8.2924 5.188C8.9724 5.628 9.4684 6.252 9.7804 7.06H8.4724C8.2404 6.556 7.9044 6.168 7.4644 5.896C7.0324 5.624 6.5124 5.488 5.9044 5.488C5.3204 5.488 4.7964 5.624 4.3324 5.896C3.8684 6.168 3.5044 6.556 3.2404 7.06C2.9764 7.556 2.8444 8.14 2.8444 8.812C2.8444 9.476 2.9764 10.06 3.2404 10.564C3.5044 11.06 3.8684 11.444 4.3324 11.716C4.7964 11.988 5.3204 12.124 5.9044 12.124C6.5124 12.124 7.0324 11.992 7.4644 11.728C7.9044 11.456 8.2404 11.068 8.4724 10.564H9.7804C9.4684 11.364 8.9724 11.984 8.2924 12.424C7.6124 12.856 6.8164 13.072 5.9044 13.072C5.1284 13.072 4.4204 12.892 3.7804 12.532C3.1484 12.164 2.6484 11.656 2.2804 11.008C1.9124 10.36 1.7284 9.628 1.7284 8.812ZM14.2739 13.108C13.6579 13.108 13.0979 12.968 12.5939 12.688C12.0979 12.408 11.7059 12.012 11.4179 11.5C11.1379 10.98 10.9979 10.38 10.9979 9.7C10.9979 9.028 11.1419 8.436 11.4299 7.924C11.7259 7.404 12.1259 7.008 12.6299 6.736C13.1339 6.456 13.6979 6.316 14.3219 6.316C14.9459 6.316 15.5099 6.456 16.0139 6.736C16.5179 7.008 16.9139 7.4 17.2019 7.912C17.4979 8.424 17.6459 9.02 17.6459 9.7C17.6459 10.38 17.4939 10.98 17.1899 11.5C16.8939 12.012 16.4899 12.408 15.9779 12.688C15.4659 12.968 14.8979 13.108 14.2739 13.108ZM14.2739 12.148C14.6659 12.148 15.0339 12.056 15.3779 11.872C15.7219 11.688 15.9979 11.412 16.2059 11.044C16.4219 10.676 16.5299 10.228 16.5299 9.7C16.5299 9.172 16.4259 8.724 16.2179 8.356C16.0099 7.988 15.7379 7.716 15.4019 7.54C15.0659 7.356 14.7019 7.264 14.3099 7.264C13.9099 7.264 13.5419 7.356 13.2059 7.54C12.8779 7.716 12.6139 7.988 12.4139 8.356C12.2139 8.724 12.1139 9.172 12.1139 9.7C12.1139 10.236 12.2099 10.688 12.4019 11.056C12.6019 11.424 12.8659 11.7 13.1939 11.884C13.5219 12.06 13.8819 12.148 14.2739 12.148ZM20.1737 4.12V13H19.0817V4.12H20.1737ZM23.1268 4.12V13H22.0348V4.12H23.1268ZM24.58 9.688C24.58 9.016 24.716 8.428 24.988 7.924C25.26 7.412 25.632 7.016 26.104 6.736C26.584 6.456 27.116 6.316 27.7 6.316C28.276 6.316 28.776 6.44 29.2 6.688C29.624 6.936 29.94 7.248 30.148 7.624V6.424H31.252V13H30.148V11.776C29.932 12.16 29.608 12.48 29.176 12.736C28.752 12.984 28.256 13.108 27.688 13.108C27.104 13.108 26.576 12.964 26.104 12.676C25.632 12.388 25.26 11.984 24.988 11.464C24.716 10.944 24.58 10.352 24.58 9.688ZM30.148 9.7C30.148 9.204 30.048 8.772 29.848 8.404C29.648 8.036 29.376 7.756 29.032 7.564C28.696 7.364 28.324 7.264 27.916 7.264C27.508 7.264 27.136 7.36 26.8 7.552C26.464 7.744 26.196 8.024 25.996 8.392C25.796 8.76 25.696 9.192 25.696 9.688C25.696 10.192 25.796 10.632 25.996 11.008C26.196 11.376 26.464 11.66 26.8 11.86C27.136 12.052 27.508 12.148 27.916 12.148C28.324 12.148 28.696 12.052 29.032 11.86C29.376 11.66 29.648 11.376 29.848 11.008C30.048 10.632 30.148 10.196 30.148 9.7ZM34.1893 7.636C34.4053 7.26 34.7253 6.948 35.1493 6.7C35.5813 6.444 36.0813 6.316 36.6493 6.316C37.2333 6.316 37.7613 6.456 38.2333 6.736C38.7133 7.016 39.0893 7.412 39.3613 7.924C39.6333 8.428 39.7693 9.016 39.7693 9.688C39.7693 10.352 39.6333 10.944 39.3613 11.464C39.0893 11.984 38.7133 12.388 38.2333 12.676C37.7613 12.964 37.2333 13.108 36.6493 13.108C36.0893 13.108 35.5933 12.984 35.1613 12.736C34.7373 12.48 34.4133 12.164 34.1893 11.788V16.12H33.0973V6.424H34.1893V7.636ZM38.6533 9.688C38.6533 9.192 38.5533 8.76 38.3533 8.392C38.1533 8.024 37.8813 7.744 37.5373 7.552C37.2013 7.36 36.8293 7.264 36.4213 7.264C36.0213 7.264 35.6493 7.364 35.3053 7.564C34.9693 7.756 34.6973 8.04 34.4893 8.416C34.2893 8.784 34.1893 9.212 34.1893 9.7C34.1893 10.196 34.2893 10.632 34.4893 11.008C34.6973 11.376 34.9693 11.66 35.3053 11.86C35.6493 12.052 36.0213 12.148 36.4213 12.148C36.8293 12.148 37.2013 12.052 37.5373 11.86C37.8813 11.66 38.1533 11.376 38.3533 11.008C38.5533 10.632 38.6533 10.192 38.6533 9.688ZM43.5347 13.108C43.0307 13.108 42.5787 13.024 42.1787 12.856C41.7787 12.68 41.4627 12.44 41.2307 12.136C40.9987 11.824 40.8707 11.468 40.8467 11.068H41.9747C42.0067 11.396 42.1587 11.664 42.4307 11.872C42.7107 12.08 43.0747 12.184 43.5227 12.184C43.9387 12.184 44.2667 12.092 44.5067 11.908C44.7467 11.724 44.8667 11.492 44.8667 11.212C44.8667 10.924 44.7387 10.712 44.4827 10.576C44.2267 10.432 43.8307 10.292 43.2947 10.156C42.8067 10.028 42.4067 9.9 42.0947 9.772C41.7907 9.636 41.5267 9.44 41.3027 9.184C41.0867 8.92 40.9787 8.576 40.9787 8.152C40.9787 7.816 41.0787 7.508 41.2787 7.228C41.4787 6.948 41.7627 6.728 42.1307 6.568C42.4987 6.4 42.9187 6.316 43.3907 6.316C44.1187 6.316 44.7067 6.5 45.1547 6.868C45.6027 7.236 45.8427 7.74 45.8747 8.38H44.7827C44.7587 8.036 44.6187 7.76 44.3627 7.552C44.1147 7.344 43.7787 7.24 43.3547 7.24C42.9627 7.24 42.6507 7.324 42.4187 7.492C42.1867 7.66 42.0707 7.88 42.0707 8.152C42.0707 8.368 42.1387 8.548 42.2747 8.692C42.4187 8.828 42.5947 8.94 42.8027 9.028C43.0187 9.108 43.3147 9.2 43.6907 9.304C44.1627 9.432 44.5467 9.56 44.8427 9.688C45.1387 9.808 45.3907 9.992 45.5987 10.24C45.8147 10.488 45.9267 10.812 45.9347 11.212C45.9347 11.572 45.8347 11.896 45.6347 12.184C45.4347 12.472 45.1507 12.7 44.7827 12.868C44.4227 13.028 44.0067 13.108 43.5347 13.108ZM53.4762 9.46C53.4762 9.668 53.4642 9.888 53.4402 10.12H48.1842C48.2242 10.768 48.4442 11.276 48.8442 11.644C49.2522 12.004 49.7442 12.184 50.3202 12.184C50.7922 12.184 51.1842 12.076 51.4962 11.86C51.8162 11.636 52.0402 11.34 52.1682 10.972H53.3442C53.1682 11.604 52.8162 12.12 52.2882 12.52C51.7602 12.912 51.1042 13.108 50.3202 13.108C49.6962 13.108 49.1362 12.968 48.6402 12.688C48.1522 12.408 47.7682 12.012 47.4882 11.5C47.2082 10.98 47.0682 10.38 47.0682 9.7C47.0682 9.02 47.2042 8.424 47.4762 7.912C47.7482 7.4 48.1282 7.008 48.6162 6.736C49.1122 6.456 49.6802 6.316 50.3202 6.316C50.9442 6.316 51.4962 6.452 51.9762 6.724C52.4562 6.996 52.8242 7.372 53.0802 7.852C53.3442 8.324 53.4762 8.86 53.4762 9.46ZM52.3482 9.232C52.3482 8.816 52.2562 8.46 52.0722 8.164C51.8882 7.86 51.6362 7.632 51.3162 7.48C51.0042 7.32 50.6562 7.24 50.2722 7.24C49.7202 7.24 49.2482 7.416 48.8562 7.768C48.4722 8.12 48.2522 8.608 48.1962 9.232H52.3482Z" fill="#006EE3"/>
<path d="M1.2124 14.2H53.9922V14.8H1.2124V14.2Z" fill="#006EE3"/>
<path d="M59.4939 10.8749C59.4939 10.683 59.5671 10.491 59.7136 10.3447L63.4636 6.59473C63.7566 6.30176 64.2312 6.30176 64.5242 6.59473L68.2742 10.3447C68.5671 10.6377 68.5671 11.1123 68.2742 11.4053C67.9812 11.6982 67.5066 11.6982 67.2136 11.4053L63.9939 8.18543L60.7736 11.4057C60.4806 11.6987 60.006 11.6987 59.713 11.4057C59.5666 11.2593 59.4939 11.0671 59.4939 10.8749Z" fill="#006EE3"/>
</svg>
