<svg width="18" height="24" viewBox="0 0 18 24" fill="none" xmlns="http://www.w3.org/2000/svg">
<path d="M1.17644 0.846507C1.55086 0.674412 1.99077 0.735876 2.30367 1.00392L4.07824 2.52501L5.85369 1.00392C6.24921 0.665359 6.82931 0.665359 7.22483 1.00392L9.00028 2.52501L10.7757 1.00392C11.1712 0.665359 11.7513 0.665359 12.1469 1.00392L13.9223 2.52501L15.6978 1.00392C16.0098 0.735876 16.4493 0.674412 16.8228 0.846507C17.1963 1.01865 17.4381 1.39294 17.4381 1.80472V22.196C17.4381 22.6091 17.1963 22.9827 16.8228 23.1541C16.4493 23.3254 16.0098 23.2639 15.6978 22.9958L13.9223 21.4753L12.1469 22.9958C11.7513 23.3342 11.1712 23.3342 10.7757 22.9958L9.00028 21.4753L7.22483 22.9958C6.82931 23.3342 6.24921 23.3342 5.85369 22.9958L4.07824 21.4753L2.30367 22.9958C1.99077 23.2639 1.55086 23.3254 1.17644 23.1541C0.802274 22.9827 0.5625 22.6091 0.5625 22.196V1.80472C0.5625 1.39294 0.802274 1.0186 1.17644 0.846507ZM4.78139 7.07833C4.3929 7.07833 4.07824 7.39475 4.07824 7.78148C4.07824 8.16821 4.3929 8.48463 4.78139 8.48463H13.2192C13.6059 8.48463 13.9223 8.16821 13.9223 7.78148C13.9223 7.39475 13.6059 7.07833 13.2192 7.07833H4.78139ZM4.78139 16.9224H13.2192C13.6059 16.9224 13.9223 16.606 13.9223 16.2193C13.9223 15.8325 13.6059 15.5161 13.2192 15.5161H4.78139C4.3929 15.5161 4.07824 15.8325 4.07824 16.2193C4.07824 16.606 4.3929 16.9224 4.78139 16.9224ZM4.78139 11.2972C4.3929 11.2972 4.07824 11.6136 4.07824 12.0004C4.07824 12.3871 4.3929 12.7035 4.78139 12.7035H13.2192C13.6059 12.7035 13.9223 12.3871 13.9223 12.0004C13.9223 11.6136 13.6059 11.2972 13.2192 11.2972H4.78139Z" fill="#707699"/>
</svg>
