<svg width="22" height="22" viewBox="0 0 22 22" fill="none" xmlns="http://www.w3.org/2000/svg">
<path d="M10.4797 0.977086C10.7954 0.840971 11.1584 0.840971 11.4741 0.977086L20.3131 4.76529C20.8655 5.00244 21.1733 5.59433 21.051 6.17832C20.9326 6.76627 20.4157 7.15297 19.7804 7.18848V7.50415C19.7804 8.02896 19.3937 8.45117 18.8334 8.45117H3.0494C2.56167 8.45117 2.10236 8.02896 2.10236 7.50415V7.18848C1.53848 7.15297 1.02147 6.76627 0.900914 6.17832C0.780372 5.59433 1.08938 5.00244 1.64028 4.76529L10.4797 0.977086ZM10.9769 5.92578C11.6753 5.92578 12.2396 5.36152 12.2396 4.66309C12.2396 3.96585 11.6753 3.40039 10.9769 3.40039C10.2785 3.40039 9.71417 3.96585 9.71417 4.66309C9.71417 5.36152 10.2785 5.92578 10.9769 5.92578ZM5.89051 17.29H7.46891V9.71387H9.99434V17.29H11.9239V9.71387H14.4494V17.29H16.0278V9.71387H18.5532V17.4597C18.5769 17.4716 18.6005 17.4518 18.6242 17.5031L20.5183 18.7658C20.98 19.0736 21.1852 19.6497 21.0234 20.1824C20.8616 20.7151 20.3723 21.0781 19.8159 21.0781H2.10236C1.58149 21.0781 1.09053 20.7151 0.929293 20.1824C0.768021 19.6497 0.974396 19.0736 1.43746 18.7658L3.33153 17.5031C3.35403 17.4518 3.37731 17.4716 3.36507 17.4597V9.71387H5.89051V17.29Z" fill="#3B3F54"/>
</svg>
