<svg width="18" height="22" viewBox="0 0 18 22" fill="none" xmlns="http://www.w3.org/2000/svg">
<path d="M11.7344 0.078125V5.53906H17.2031L11.7344 0.078125ZM10.3672 5.53906V0.078125H2.84766C1.71503 0.078125 0.796875 0.994965 0.796875 2.12598V19.874C0.796875 21.0046 1.71503 21.9219 2.84766 21.9219H15.1523C16.285 21.9219 17.2031 21.005 17.2031 19.874V6.9043H11.7728C10.9781 6.9043 10.3672 6.29421 10.3672 5.53906ZM3.53125 3.1499C3.53125 2.96346 3.68634 2.80859 3.87305 2.80859H7.29102C7.479 2.80859 7.63281 2.96346 7.63281 3.1499V3.83252C7.63281 4.01939 7.479 4.17383 7.29102 4.17383H3.87305C3.68634 4.17383 3.53125 4.01939 3.53125 3.83252V3.1499ZM3.53125 5.88037C3.53125 5.69265 3.68634 5.53906 3.87305 5.53906H7.29102C7.479 5.53906 7.63281 5.69265 7.63281 5.88037V6.56299C7.63281 6.75071 7.479 6.9043 7.29102 6.9043H3.87305C3.68634 6.9043 3.53125 6.75071 3.53125 6.56299V5.88037ZM13.7852 16.4609C14.1643 16.4609 14.4688 16.7649 14.4688 17.1436C14.4688 17.5222 14.1654 17.8262 13.7852 17.8262H11.7664C11.0666 17.8262 10.4313 17.4369 10.116 16.8074C9.99313 16.5567 9.77417 16.5301 9.68359 16.5301C9.59302 16.5301 9.37384 16.5567 9.25635 16.7914L8.92523 17.4475C8.81201 17.6811 8.5343 17.8262 8.31641 17.8262H8.26941C7.9917 17.8048 7.75671 17.6235 7.67126 17.3569L6.94922 15.2066L6.49634 16.5676C6.24426 17.3185 5.53931 17.8262 4.74377 17.8262H4.21484C3.83588 17.8262 3.53125 17.5233 3.53125 17.1436C3.53125 16.7638 3.83588 16.4609 4.21484 16.4609H4.74377C4.95206 16.4609 5.13364 16.3276 5.19751 16.1356L5.97723 13.8049C6.11609 13.3849 6.50488 13.1033 6.94922 13.1033C7.39355 13.1033 7.78235 13.386 7.9212 13.8073L8.51422 15.5833C9.35803 14.8901 10.8269 15.1674 11.334 16.1858C11.4195 16.3564 11.5904 16.4631 11.7664 16.4631H13.7852V16.4609Z" fill="#3B3F54"/>
</svg>
