<svg width="22" height="14" viewBox="0 0 22 14" fill="none" xmlns="http://www.w3.org/2000/svg">
<path d="M17.1801 8.45572L17.5966 8.03073H17.0015H1.35067C0.751538 8.03073 0.25 7.53559 0.25 6.86183C0.25 6.20677 0.732853 5.77056 1.35067 5.77056H17.0015H17.596L17.1802 5.3457L14.083 2.18099C13.6505 1.73907 13.6505 1.0211 14.083 0.579184C14.5125 0.140272 15.206 0.140272 15.6355 0.579184L21.0375 6.09881C21.0376 6.09887 21.0376 6.09893 21.0377 6.09899C21.468 6.54243 21.4677 7.25865 21.0353 7.70047L15.6326 13.2208C15.2027 13.6601 14.5092 13.6594 14.08 13.2208C13.6475 12.7789 13.6475 12.0609 14.08 11.619L17.1801 8.45572Z" fill="#006EE3" stroke="#EBF2F9" stroke-width="0.5"/>
</svg>
