<svg width="36" height="48" viewBox="0 0 36 48" fill="none" xmlns="http://www.w3.org/2000/svg">
<path d="M28.0772 10.9821C28.0772 11.6266 27.552 12.1315 26.9568 12.1315H25.8363L25.8609 17.8643C25.8609 17.9645 25.8538 18.0576 25.8433 18.1543V18.7344C25.8433 19.5257 25.2166 20.1667 24.4428 20.1667H23.8826C23.8441 20.1667 23.8056 20.1344 23.7671 20.1631C23.7181 20.1344 23.669 20.1667 23.62 20.1667H21.6418C20.868 20.1667 20.2413 19.5257 20.2413 18.7344V15.5833C20.2413 14.9495 19.7406 14.4375 19.1208 14.4375H16.88C16.2603 14.4375 15.7596 14.9495 15.7596 15.5833V18.7344C15.7596 19.5257 15.1329 20.1667 14.3591 20.1667H12.4018C12.3493 20.1667 12.2968 20.1631 12.2443 20.1595C12.2023 20.1631 12.1603 20.1667 12.1182 20.1667H11.558C10.7846 20.1667 10.1575 19.5257 10.1575 18.7344V14.724C10.1575 14.6917 10.1586 14.6559 10.1607 14.6237V12.1315H9.03884C8.40755 12.1315 7.91667 11.6266 7.91667 10.9821C7.91667 10.6598 8.02185 10.3734 8.26715 10.1227L17.2441 2.12037C17.4892 1.86921 17.7693 1.83334 18.0144 1.83334C18.2595 1.83334 18.5396 1.90509 18.7532 2.08449L27.692 10.1227C27.9721 10.3734 28.1157 10.6598 28.0772 10.9821Z" fill="#707699"/>
<path d="M7.47347 34.636V43H6.38147V39.208H2.12147V43H1.02947V34.636H2.12147V38.308H6.38147V34.636H7.47347ZM12.2061 43.108C11.5901 43.108 11.0301 42.968 10.5261 42.688C10.0301 42.408 9.63806 42.012 9.35006 41.5C9.07006 40.98 8.93006 40.38 8.93006 39.7C8.93006 39.028 9.07406 38.436 9.36206 37.924C9.65806 37.404 10.0581 37.008 10.5621 36.736C11.0661 36.456 11.6301 36.316 12.2541 36.316C12.8781 36.316 13.4421 36.456 13.9461 36.736C14.4501 37.008 14.8461 37.4 15.1341 37.912C15.4301 38.424 15.5781 39.02 15.5781 39.7C15.5781 40.38 15.4261 40.98 15.1221 41.5C14.8261 42.012 14.4221 42.408 13.9101 42.688C13.3981 42.968 12.8301 43.108 12.2061 43.108ZM12.2061 42.148C12.5981 42.148 12.9661 42.056 13.3101 41.872C13.6541 41.688 13.9301 41.412 14.1381 41.044C14.3541 40.676 14.4621 40.228 14.4621 39.7C14.4621 39.172 14.3581 38.724 14.1501 38.356C13.9421 37.988 13.6701 37.716 13.3341 37.54C12.9981 37.356 12.6341 37.264 12.2421 37.264C11.8421 37.264 11.4741 37.356 11.1381 37.54C10.8101 37.716 10.5461 37.988 10.3461 38.356C10.1461 38.724 10.0461 39.172 10.0461 39.7C10.0461 40.236 10.1421 40.688 10.3341 41.056C10.5341 41.424 10.7981 41.7 11.1261 41.884C11.4541 42.06 11.8141 42.148 12.2061 42.148ZM24.9218 36.304C25.4338 36.304 25.8898 36.412 26.2898 36.628C26.6898 36.836 27.0058 37.152 27.2378 37.576C27.4698 38 27.5858 38.516 27.5858 39.124V43H26.5058V39.28C26.5058 38.624 26.3418 38.124 26.0138 37.78C25.6938 37.428 25.2578 37.252 24.7058 37.252C24.1378 37.252 23.6858 37.436 23.3498 37.804C23.0138 38.164 22.8458 38.688 22.8458 39.376V43H21.7658V39.28C21.7658 38.624 21.6018 38.124 21.2738 37.78C20.9538 37.428 20.5178 37.252 19.9658 37.252C19.3978 37.252 18.9458 37.436 18.6098 37.804C18.2738 38.164 18.1058 38.688 18.1058 39.376V43H17.0138V36.424H18.1058V37.372C18.3218 37.028 18.6098 36.764 18.9698 36.58C19.3378 36.396 19.7418 36.304 20.1818 36.304C20.7338 36.304 21.2218 36.428 21.6458 36.676C22.0698 36.924 22.3858 37.288 22.5938 37.768C22.7778 37.304 23.0818 36.944 23.5058 36.688C23.9298 36.432 24.4018 36.304 24.9218 36.304ZM35.3771 39.46C35.3771 39.668 35.3651 39.888 35.3411 40.12H30.0851C30.1251 40.768 30.3451 41.276 30.7451 41.644C31.1531 42.004 31.6451 42.184 32.2211 42.184C32.6931 42.184 33.0851 42.076 33.3971 41.86C33.7171 41.636 33.9411 41.34 34.0691 40.972H35.2451C35.0691 41.604 34.7171 42.12 34.1891 42.52C33.6611 42.912 33.0051 43.108 32.2211 43.108C31.5971 43.108 31.0371 42.968 30.5411 42.688C30.0531 42.408 29.6691 42.012 29.3891 41.5C29.1091 40.98 28.9691 40.38 28.9691 39.7C28.9691 39.02 29.1051 38.424 29.3771 37.912C29.6491 37.4 30.0291 37.008 30.5171 36.736C31.0131 36.456 31.5811 36.316 32.2211 36.316C32.8451 36.316 33.3971 36.452 33.8771 36.724C34.3571 36.996 34.7251 37.372 34.9811 37.852C35.2451 38.324 35.3771 38.86 35.3771 39.46ZM34.2491 39.232C34.2491 38.816 34.1571 38.46 33.9731 38.164C33.7891 37.86 33.5371 37.632 33.2171 37.48C32.9051 37.32 32.5571 37.24 32.1731 37.24C31.6211 37.24 31.1491 37.416 30.7571 37.768C30.3731 38.12 30.1531 38.608 30.0971 39.232H34.2491Z" fill="#707699"/>
</svg>
