<svg width="28" height="36" viewBox="0 0 28 36" fill="none" xmlns="http://www.w3.org/2000/svg">
<circle cx="14" cy="34" r="2" fill="#006EE3"/>
<path d="M26.9921 13.9766C26.9921 14.8203 26.3149 15.4813 25.5475 15.4813H24.103L24.1346 22.9859C24.1346 23.1172 24.1256 23.2391 24.1121 23.3656V24.125C24.1121 25.1609 23.3041 26 22.3064 26H21.5842C21.5345 26 21.4849 25.9578 21.4352 25.9953C21.372 25.9578 21.3088 26 21.2456 26H18.6952C17.6976 26 16.8895 25.1609 16.8895 24.125V20C16.8895 19.1703 16.244 18.5 15.445 18.5H12.556C11.757 18.5 11.1115 19.1703 11.1115 20V24.125C11.1115 25.1609 10.3035 26 9.3059 26H6.78253C6.71482 26 6.64711 25.9953 6.5794 25.9906C6.52523 25.9953 6.47106 26 6.41689 26H5.69464C4.69748 26 3.88901 25.1609 3.88901 24.125V18.875C3.88901 18.8328 3.89036 18.7859 3.89307 18.7438V15.4813H2.44676C1.63287 15.4813 1 14.8203 1 13.9766C1 13.5547 1.1356 13.1797 1.45186 12.8516L13.0255 2.37575C13.3415 2.04697 13.7026 2 14.0186 2C14.3346 2 14.6957 2.09394 14.9711 2.32878L26.4955 12.8516C26.8566 13.1797 27.0417 13.5547 26.9921 13.9766Z" fill="#006EE3"/>
</svg>
