<svg width="43" height="58" viewBox="0 0 43 58" fill="none" xmlns="http://www.w3.org/2000/svg">
<circle cx="21" cy="32" r="2" fill="#006EE3"/>
<path d="M33.064 12.9782C33.064 13.7617 32.4353 14.3755 31.7227 14.3755H30.3814L30.4107 21.3441C30.4107 21.466 30.4024 21.5791 30.3898 21.6967V22.4018C30.3898 23.3637 29.6395 24.1429 28.7131 24.1429H28.0425C27.9964 24.1429 27.9502 24.1037 27.9041 24.1385C27.8455 24.1037 27.7868 24.1429 27.7281 24.1429H25.3598C24.4335 24.1429 23.6832 23.3637 23.6832 22.4018V18.5714C23.6832 17.801 23.0837 17.1786 22.3418 17.1786H19.6592C18.9173 17.1786 18.3179 17.801 18.3179 18.5714V22.4018C18.3179 23.3637 17.5675 24.1429 16.6412 24.1429H14.2981C14.2352 24.1429 14.1723 24.1385 14.1094 24.1342C14.0591 24.1385 14.0088 24.1429 13.9585 24.1429H13.2879C12.3619 24.1429 11.6112 23.3637 11.6112 22.4018V17.5268C11.6112 17.4876 11.6125 17.4441 11.615 17.4049V14.3755H10.272C9.51624 14.3755 8.92857 13.7617 8.92857 12.9782C8.92857 12.5865 9.05449 12.2383 9.34816 11.9336L20.0951 2.20606C20.3885 1.90076 20.7239 1.85715 21.0173 1.85715C21.3107 1.85715 21.646 1.94437 21.9017 2.16244L32.603 11.9336C32.9383 12.2383 33.1102 12.5865 33.064 12.9782Z" fill="#006EE3"/>
<path d="M9.43528 44.228V54H7.47528V49.842H3.28928V54H1.32928V44.228H3.28928V48.246H7.47528V44.228H9.43528ZM14.8084 54.126C14.0618 54.126 13.3898 53.9627 12.7924 53.636C12.1951 53.3 11.7238 52.8287 11.3784 52.222C11.0424 51.6153 10.8744 50.9153 10.8744 50.122C10.8744 49.3287 11.0471 48.6287 11.3924 48.022C11.7471 47.4153 12.2278 46.9487 12.8344 46.622C13.4411 46.286 14.1178 46.118 14.8644 46.118C15.6111 46.118 16.2878 46.286 16.8944 46.622C17.5011 46.9487 17.9771 47.4153 18.3224 48.022C18.6771 48.6287 18.8544 49.3287 18.8544 50.122C18.8544 50.9153 18.6724 51.6153 18.3084 52.222C17.9538 52.8287 17.4684 53.3 16.8524 53.636C16.2458 53.9627 15.5644 54.126 14.8084 54.126ZM14.8084 52.418C15.1631 52.418 15.4944 52.334 15.8024 52.166C16.1198 51.9887 16.3718 51.7273 16.5584 51.382C16.7451 51.0367 16.8384 50.6167 16.8384 50.122C16.8384 49.3847 16.6424 48.82 16.2504 48.428C15.8678 48.0267 15.3964 47.826 14.8364 47.826C14.2764 47.826 13.8051 48.0267 13.4224 48.428C13.0491 48.82 12.8624 49.3847 12.8624 50.122C12.8624 50.8593 13.0444 51.4287 13.4084 51.83C13.7818 52.222 14.2484 52.418 14.8084 52.418ZM29.9242 46.132C30.8762 46.132 31.6415 46.426 32.2202 47.014C32.8082 47.5927 33.1022 48.4047 33.1022 49.45V54H31.1422V49.716C31.1422 49.1093 30.9882 48.6473 30.6802 48.33C30.3722 48.0033 29.9522 47.84 29.4202 47.84C28.8882 47.84 28.4635 48.0033 28.1462 48.33C27.8382 48.6473 27.6842 49.1093 27.6842 49.716V54H25.7242V49.716C25.7242 49.1093 25.5702 48.6473 25.2622 48.33C24.9542 48.0033 24.5342 47.84 24.0022 47.84C23.4608 47.84 23.0315 48.0033 22.7142 48.33C22.4062 48.6473 22.2522 49.1093 22.2522 49.716V54H20.2922V46.244H22.2522V47.182C22.5042 46.8553 22.8262 46.5987 23.2182 46.412C23.6195 46.2253 24.0582 46.132 24.5342 46.132C25.1408 46.132 25.6822 46.2627 26.1582 46.524C26.6342 46.776 27.0028 47.14 27.2642 47.616C27.5162 47.168 27.8802 46.8087 28.3562 46.538C28.8415 46.2673 29.3642 46.132 29.9242 46.132ZM42.1721 49.954C42.1721 50.234 42.1534 50.486 42.1161 50.71H36.4461C36.4928 51.27 36.6888 51.7087 37.0341 52.026C37.3794 52.3433 37.8041 52.502 38.3081 52.502C39.0361 52.502 39.5541 52.1893 39.8621 51.564H41.9761C41.7521 52.3107 41.3228 52.9267 40.6881 53.412C40.0534 53.888 39.2741 54.126 38.3501 54.126C37.6034 54.126 36.9314 53.9627 36.3341 53.636C35.7461 53.3 35.2841 52.8287 34.9481 52.222C34.6214 51.6153 34.4581 50.9153 34.4581 50.122C34.4581 49.3193 34.6214 48.6147 34.9481 48.008C35.2748 47.4013 35.7321 46.9347 36.3201 46.608C36.9081 46.2813 37.5848 46.118 38.3501 46.118C39.0874 46.118 39.7454 46.2767 40.3241 46.594C40.9121 46.9113 41.3648 47.364 41.6821 47.952C42.0088 48.5307 42.1721 49.198 42.1721 49.954ZM40.1421 49.394C40.1328 48.89 39.9508 48.4887 39.5961 48.19C39.2414 47.882 38.8074 47.728 38.2941 47.728C37.8088 47.728 37.3981 47.8773 37.0621 48.176C36.7354 48.4653 36.5348 48.8713 36.4601 49.394H40.1421Z" fill="#006EE3"/>
</svg>
