<svg width="49" height="58" viewBox="0 0 49 58" fill="none" xmlns="http://www.w3.org/2000/svg">
<circle cx="24" cy="34" r="2" fill="#006EE3"/>
<path d="M14.8725 0.987592C15.3093 0.786814 15.8226 0.858521 16.1876 1.17125L18.2579 2.94584L20.3293 1.17125C20.7907 0.776252 21.4675 0.776252 21.929 1.17125L24.0003 2.94584L26.0717 1.17125C26.5331 0.776252 27.2099 0.776252 27.6713 1.17125L29.7427 2.94584L31.8141 1.17125C32.1781 0.858521 32.6908 0.786814 33.1266 0.987592C33.5624 1.18842 33.8444 1.6251 33.8444 2.10551V25.8954C33.8444 26.3773 33.5624 26.8131 33.1266 27.0131C32.6908 27.213 32.1781 27.1412 31.8141 26.8285L29.7427 25.0545L27.6713 26.8285C27.2099 27.2233 26.5331 27.2233 26.0717 26.8285L24.0003 25.0545L21.929 26.8285C21.4675 27.2233 20.7907 27.2233 20.3293 26.8285L18.2579 25.0545L16.1876 26.8285C15.8226 27.1412 15.3093 27.213 14.8725 27.0131C14.436 26.8131 14.1562 26.3773 14.1562 25.8954V2.10551C14.1562 1.6251 14.436 1.18837 14.8725 0.987592ZM19.0783 8.25805C18.625 8.25805 18.2579 8.62721 18.2579 9.07839C18.2579 9.52958 18.625 9.89873 19.0783 9.89873H28.9224C29.3735 9.89873 29.7427 9.52958 29.7427 9.07839C29.7427 8.62721 29.3735 8.25805 28.9224 8.25805H19.0783ZM19.0783 19.7428H28.9224C29.3735 19.7428 29.7427 19.3737 29.7427 18.9225C29.7427 18.4713 29.3735 18.1021 28.9224 18.1021H19.0783C18.625 18.1021 18.2579 18.4713 18.2579 18.9225C18.2579 19.3737 18.625 19.7428 19.0783 19.7428ZM19.0783 13.1801C18.625 13.1801 18.2579 13.5492 18.2579 14.0004C18.2579 14.4516 18.625 14.8208 19.0783 14.8208H28.9224C29.3735 14.8208 29.7427 14.4516 29.7427 14.0004C29.7427 13.5492 29.3735 13.1801 28.9224 13.1801H19.0783Z" fill="#006EE3"/>
<path d="M5.96684 54.098C5.05218 54.098 4.21218 53.8833 3.44684 53.454C2.68151 53.0247 2.07484 52.432 1.62684 51.676C1.17884 50.9107 0.954844 50.0473 0.954844 49.086C0.954844 48.134 1.17884 47.28 1.62684 46.524C2.07484 45.7587 2.68151 45.1613 3.44684 44.732C4.21218 44.3027 5.05218 44.088 5.96684 44.088C6.89084 44.088 7.73084 44.3027 8.48684 44.732C9.25218 45.1613 9.85418 45.7587 10.2928 46.524C10.7408 47.28 10.9648 48.134 10.9648 49.086C10.9648 50.0473 10.7408 50.9107 10.2928 51.676C9.85418 52.432 9.25218 53.0247 8.48684 53.454C7.72151 53.8833 6.88151 54.098 5.96684 54.098ZM5.96684 52.348C6.55484 52.348 7.07284 52.2173 7.52084 51.956C7.96884 51.6853 8.31884 51.3027 8.57084 50.808C8.82284 50.3133 8.94884 49.7393 8.94884 49.086C8.94884 48.4327 8.82284 47.8633 8.57084 47.378C8.31884 46.8833 7.96884 46.5053 7.52084 46.244C7.07284 45.9827 6.55484 45.852 5.96684 45.852C5.37884 45.852 4.85618 45.9827 4.39884 46.244C3.95084 46.5053 3.60084 46.8833 3.34884 47.378C3.09684 47.8633 2.97084 48.4327 2.97084 49.086C2.97084 49.7393 3.09684 50.3133 3.34884 50.808C3.60084 51.3027 3.95084 51.6853 4.39884 51.956C4.85618 52.2173 5.37884 52.348 5.96684 52.348ZM14.383 47.448C14.635 47.0373 14.9617 46.7153 15.363 46.482C15.7737 46.2487 16.2404 46.132 16.763 46.132V48.19H16.245C15.629 48.19 15.1624 48.3347 14.845 48.624C14.537 48.9133 14.383 49.4173 14.383 50.136V54H12.423V46.244H14.383V47.448ZM17.5792 50.094C17.5792 49.31 17.7332 48.6147 18.0412 48.008C18.3585 47.4013 18.7879 46.9347 19.3292 46.608C19.8705 46.2813 20.4725 46.118 21.1352 46.118C21.6392 46.118 22.1199 46.23 22.5772 46.454C23.0345 46.6687 23.3985 46.958 23.6692 47.322V43.64H25.6572V54H23.6692V52.852C23.4265 53.2347 23.0859 53.5427 22.6472 53.776C22.2085 54.0093 21.6999 54.126 21.1212 54.126C20.4679 54.126 19.8705 53.958 19.3292 53.622C18.7879 53.286 18.3585 52.8147 18.0412 52.208C17.7332 51.592 17.5792 50.8873 17.5792 50.094ZM23.6832 50.122C23.6832 49.646 23.5899 49.24 23.4032 48.904C23.2165 48.5587 22.9645 48.2973 22.6472 48.12C22.3299 47.9333 21.9892 47.84 21.6252 47.84C21.2612 47.84 20.9252 47.9287 20.6172 48.106C20.3092 48.2833 20.0572 48.5447 19.8612 48.89C19.6745 49.226 19.5812 49.6273 19.5812 50.094C19.5812 50.5607 19.6745 50.9713 19.8612 51.326C20.0572 51.6713 20.3092 51.9373 20.6172 52.124C20.9345 52.3107 21.2705 52.404 21.6252 52.404C21.9892 52.404 22.3299 52.3153 22.6472 52.138C22.9645 51.9513 23.2165 51.69 23.4032 51.354C23.5899 51.0087 23.6832 50.598 23.6832 50.122ZM34.7815 49.954C34.7815 50.234 34.7628 50.486 34.7255 50.71H29.0555C29.1021 51.27 29.2981 51.7087 29.6435 52.026C29.9888 52.3433 30.4135 52.502 30.9175 52.502C31.6455 52.502 32.1635 52.1893 32.4715 51.564H34.5855C34.3615 52.3107 33.9321 52.9267 33.2975 53.412C32.6628 53.888 31.8835 54.126 30.9595 54.126C30.2128 54.126 29.5408 53.9627 28.9435 53.636C28.3555 53.3 27.8935 52.8287 27.5575 52.222C27.2308 51.6153 27.0675 50.9153 27.0675 50.122C27.0675 49.3193 27.2308 48.6147 27.5575 48.008C27.8841 47.4013 28.3415 46.9347 28.9295 46.608C29.5175 46.2813 30.1941 46.118 30.9595 46.118C31.6968 46.118 32.3548 46.2767 32.9335 46.594C33.5215 46.9113 33.9741 47.364 34.2915 47.952C34.6181 48.5307 34.7815 49.198 34.7815 49.954ZM32.7515 49.394C32.7421 48.89 32.5601 48.4887 32.2055 48.19C31.8508 47.882 31.4168 47.728 30.9035 47.728C30.4181 47.728 30.0075 47.8773 29.6715 48.176C29.3448 48.4653 29.1441 48.8713 29.0695 49.394H32.7515ZM38.1721 47.448C38.4241 47.0373 38.7508 46.7153 39.1521 46.482C39.5628 46.2487 40.0294 46.132 40.5521 46.132V48.19H40.0341C39.4181 48.19 38.9514 48.3347 38.6341 48.624C38.3261 48.9133 38.1721 49.4173 38.1721 50.136V54H36.2121V46.244H38.1721V47.448ZM44.8403 54.126C44.2056 54.126 43.6363 54.014 43.1323 53.79C42.6283 53.5567 42.2269 53.244 41.9283 52.852C41.6389 52.46 41.4803 52.026 41.4523 51.55H43.4263C43.4636 51.8487 43.6083 52.096 43.8603 52.292C44.1216 52.488 44.4436 52.586 44.8263 52.586C45.1996 52.586 45.4889 52.5113 45.6943 52.362C45.9089 52.2127 46.0163 52.0213 46.0163 51.788C46.0163 51.536 45.8856 51.3493 45.6243 51.228C45.3723 51.0973 44.9663 50.9573 44.4062 50.808C43.8276 50.668 43.3516 50.5233 42.9783 50.374C42.6143 50.2247 42.2969 49.996 42.0263 49.688C41.7649 49.38 41.6343 48.9647 41.6343 48.442C41.6343 48.0127 41.7556 47.6207 41.9983 47.266C42.2503 46.9113 42.6049 46.6313 43.0623 46.426C43.5289 46.2207 44.0749 46.118 44.7003 46.118C45.6243 46.118 46.3616 46.3513 46.9123 46.818C47.4629 47.2753 47.7663 47.896 47.8223 48.68H45.9463C45.9183 48.372 45.7876 48.1293 45.5543 47.952C45.3303 47.7653 45.0269 47.672 44.6443 47.672C44.2896 47.672 44.0143 47.7373 43.8183 47.868C43.6316 47.9987 43.5383 48.1807 43.5383 48.414C43.5383 48.6753 43.6689 48.876 43.9303 49.016C44.1916 49.1467 44.5976 49.282 45.1483 49.422C45.7083 49.562 46.1703 49.7067 46.5343 49.856C46.8983 50.0053 47.2109 50.2387 47.4723 50.556C47.7429 50.864 47.8829 51.2747 47.8923 51.788C47.8923 52.236 47.7663 52.6373 47.5143 52.992C47.2716 53.3467 46.9169 53.6267 46.4503 53.832C45.9929 54.028 45.4563 54.126 44.8403 54.126Z" fill="#006EE3"/>
</svg>
