<svg width="41" height="48" viewBox="0 0 41 48" fill="none" xmlns="http://www.w3.org/2000/svg">
<path d="M12.8284 0.775965C13.1716 0.618211 13.5749 0.674553 13.8617 0.920264L15.4884 2.31459L17.1159 0.920264C17.4784 0.609912 18.0102 0.609912 18.3728 0.920264L20.0003 2.31459L21.6277 0.920264C21.9903 0.609912 22.5221 0.609912 22.8846 0.920264L24.5121 2.31459L26.1396 0.920264C26.4256 0.674553 26.8285 0.618211 27.1709 0.775965C27.5133 0.933759 27.7349 1.27686 27.7349 1.65433V20.3463C27.7349 20.725 27.5133 21.0674 27.1709 21.2246C26.8285 21.3817 26.4256 21.3253 26.1396 21.0795L24.5121 19.6857L22.8846 21.0795C22.5221 21.3897 21.9903 21.3897 21.6277 21.0795L20.0003 19.6857L18.3728 21.0795C18.0102 21.3897 17.4784 21.3897 17.1159 21.0795L15.4884 19.6857L13.8617 21.0795C13.5749 21.3253 13.1716 21.3817 12.8284 21.2246C12.4854 21.0674 12.2656 20.725 12.2656 20.3463V1.65433C12.2656 1.27686 12.4854 0.933719 12.8284 0.775965ZM16.1329 6.48847C15.7768 6.48847 15.4884 6.77852 15.4884 7.13302C15.4884 7.48753 15.7768 7.77758 16.1329 7.77758H23.8676C24.2221 7.77758 24.5121 7.48753 24.5121 7.13302C24.5121 6.77852 24.2221 6.48847 23.8676 6.48847H16.1329ZM16.1329 15.5122H23.8676C24.2221 15.5122 24.5121 15.2222 24.5121 14.8677C24.5121 14.5131 24.2221 14.2231 23.8676 14.2231H16.1329C15.7768 14.2231 15.4884 14.5131 15.4884 14.8677C15.4884 15.2222 15.7768 15.5122 16.1329 15.5122ZM16.1329 10.3558C15.7768 10.3558 15.4884 10.6458 15.4884 11.0003C15.4884 11.3548 15.7768 11.6449 16.1329 11.6449H23.8676C24.2221 11.6449 24.5121 11.3548 24.5121 11.0003C24.5121 10.6458 24.2221 10.3558 23.8676 10.3558H16.1329Z" fill="#707699"/>
<path d="M5.11248 43.084C4.33648 43.084 3.62848 42.904 2.98848 42.544C2.34848 42.176 1.84048 41.668 1.46448 41.02C1.09648 40.364 0.912484 39.628 0.912484 38.812C0.912484 37.996 1.09648 37.264 1.46448 36.616C1.84048 35.96 2.34848 35.452 2.98848 35.092C3.62848 34.724 4.33648 34.54 5.11248 34.54C5.89648 34.54 6.60848 34.724 7.24848 35.092C7.88848 35.452 8.39248 35.956 8.76048 36.604C9.12848 37.252 9.31248 37.988 9.31248 38.812C9.31248 39.636 9.12848 40.372 8.76048 41.02C8.39248 41.668 7.88848 42.176 7.24848 42.544C6.60848 42.904 5.89648 43.084 5.11248 43.084ZM5.11248 42.136C5.69648 42.136 6.22048 42 6.68448 41.728C7.15648 41.456 7.52448 41.068 7.78849 40.564C8.06048 40.06 8.19648 39.476 8.19648 38.812C8.19648 38.14 8.06048 37.556 7.78849 37.06C7.52448 36.556 7.16048 36.168 6.69648 35.896C6.23248 35.624 5.70448 35.488 5.11248 35.488C4.52048 35.488 3.99248 35.624 3.52848 35.896C3.06448 36.168 2.69648 36.556 2.42448 37.06C2.16048 37.556 2.02848 38.14 2.02848 38.812C2.02848 39.476 2.16048 40.06 2.42448 40.564C2.69648 41.068 3.06448 41.456 3.52848 41.728C4.00048 42 4.52848 42.136 5.11248 42.136ZM11.8461 37.492C12.0381 37.116 12.3101 36.824 12.6621 36.616C13.0221 36.408 13.4581 36.304 13.9701 36.304V37.432H13.6821C12.4581 37.432 11.8461 38.096 11.8461 39.424V43H10.7541V36.424H11.8461V37.492ZM14.8226 39.688C14.8226 39.016 14.9586 38.428 15.2306 37.924C15.5026 37.412 15.8746 37.016 16.3466 36.736C16.8266 36.456 17.3626 36.316 17.9546 36.316C18.4666 36.316 18.9426 36.436 19.3826 36.676C19.8226 36.908 20.1586 37.216 20.3906 37.6V34.12H21.4946V43H20.3906V41.764C20.1746 42.156 19.8546 42.48 19.4306 42.736C19.0066 42.984 18.5106 43.108 17.9426 43.108C17.3586 43.108 16.8266 42.964 16.3466 42.676C15.8746 42.388 15.5026 41.984 15.2306 41.464C14.9586 40.944 14.8226 40.352 14.8226 39.688ZM20.3906 39.7C20.3906 39.204 20.2906 38.772 20.0906 38.404C19.8906 38.036 19.6186 37.756 19.2746 37.564C18.9386 37.364 18.5666 37.264 18.1586 37.264C17.7506 37.264 17.3786 37.36 17.0426 37.552C16.7066 37.744 16.4386 38.024 16.2386 38.392C16.0386 38.76 15.9386 39.192 15.9386 39.688C15.9386 40.192 16.0386 40.632 16.2386 41.008C16.4386 41.376 16.7066 41.66 17.0426 41.86C17.3786 42.052 17.7506 42.148 18.1586 42.148C18.5666 42.148 18.9386 42.052 19.2746 41.86C19.6186 41.66 19.8906 41.376 20.0906 41.008C20.2906 40.632 20.3906 40.196 20.3906 39.7ZM29.34 39.46C29.34 39.668 29.328 39.888 29.304 40.12H24.048C24.088 40.768 24.308 41.276 24.708 41.644C25.116 42.004 25.608 42.184 26.184 42.184C26.656 42.184 27.048 42.076 27.36 41.86C27.68 41.636 27.904 41.34 28.032 40.972H29.208C29.032 41.604 28.68 42.12 28.152 42.52C27.624 42.912 26.968 43.108 26.184 43.108C25.56 43.108 25 42.968 24.504 42.688C24.016 42.408 23.632 42.012 23.352 41.5C23.072 40.98 22.932 40.38 22.932 39.7C22.932 39.02 23.068 38.424 23.34 37.912C23.612 37.4 23.992 37.008 24.48 36.736C24.976 36.456 25.544 36.316 26.184 36.316C26.808 36.316 27.36 36.452 27.84 36.724C28.32 36.996 28.688 37.372 28.944 37.852C29.208 38.324 29.34 38.86 29.34 39.46ZM28.212 39.232C28.212 38.816 28.12 38.46 27.936 38.164C27.752 37.86 27.5 37.632 27.18 37.48C26.868 37.32 26.52 37.24 26.136 37.24C25.584 37.24 25.112 37.416 24.72 37.768C24.336 38.12 24.116 38.608 24.06 39.232H28.212ZM31.8734 37.492C32.0654 37.116 32.3374 36.824 32.6894 36.616C33.0494 36.408 33.4854 36.304 33.9974 36.304V37.432H33.7094C32.4854 37.432 31.8734 38.096 31.8734 39.424V43H30.7814V36.424H31.8734V37.492ZM37.586 43.108C37.082 43.108 36.63 43.024 36.23 42.856C35.83 42.68 35.514 42.44 35.282 42.136C35.05 41.824 34.922 41.468 34.898 41.068H36.026C36.058 41.396 36.21 41.664 36.482 41.872C36.762 42.08 37.126 42.184 37.574 42.184C37.99 42.184 38.318 42.092 38.558 41.908C38.798 41.724 38.918 41.492 38.918 41.212C38.918 40.924 38.79 40.712 38.534 40.576C38.278 40.432 37.882 40.292 37.346 40.156C36.858 40.028 36.458 39.9 36.146 39.772C35.842 39.636 35.578 39.44 35.354 39.184C35.138 38.92 35.03 38.576 35.03 38.152C35.03 37.816 35.13 37.508 35.33 37.228C35.53 36.948 35.814 36.728 36.182 36.568C36.55 36.4 36.97 36.316 37.442 36.316C38.17 36.316 38.758 36.5 39.206 36.868C39.654 37.236 39.894 37.74 39.926 38.38H38.834C38.81 38.036 38.67 37.76 38.414 37.552C38.166 37.344 37.83 37.24 37.406 37.24C37.014 37.24 36.702 37.324 36.47 37.492C36.238 37.66 36.122 37.88 36.122 38.152C36.122 38.368 36.19 38.548 36.326 38.692C36.47 38.828 36.646 38.94 36.854 39.028C37.07 39.108 37.366 39.2 37.742 39.304C38.214 39.432 38.598 39.56 38.894 39.688C39.19 39.808 39.442 39.992 39.65 40.24C39.866 40.488 39.978 40.812 39.986 41.212C39.986 41.572 39.886 41.896 39.686 42.184C39.486 42.472 39.202 42.7 38.834 42.868C38.474 43.028 38.058 43.108 37.586 43.108Z" fill="#707699"/>
</svg>
