<svg width="37" height="48" viewBox="0 0 37 48" fill="none" xmlns="http://www.w3.org/2000/svg">
<path d="M17 0.945312C11.4464 0.945312 6.94531 5.44636 6.94531 11C6.94531 16.5536 11.4464 21.0547 17 21.0547C22.5536 21.0547 27.0547 16.5536 27.0547 11C27.0547 5.44636 22.5536 0.945312 17 0.945312ZM17 5.97266C18.562 5.97266 19.8279 7.23892 19.8279 8.80054C19.8279 10.3622 18.5632 11.6284 17 11.6284C15.4384 11.6284 14.1721 10.3622 14.1721 8.80054C14.1721 7.23892 15.4368 5.97266 17 5.97266ZM17 18.541C14.9211 18.541 13.037 17.6954 11.6702 16.3302C12.3065 14.688 13.8775 13.5137 15.7432 13.5137H18.2568C20.124 13.5137 21.6951 14.6872 22.3298 16.3302C20.963 17.6966 19.0777 18.541 17 18.541Z" fill="#707699"/>
<path d="M6.81678 37.084C6.81678 37.78 6.57678 38.36 6.09678 38.824C5.62478 39.28 4.90078 39.508 3.92478 39.508H2.31678V43H1.22478V34.636H3.92478C4.86878 34.636 5.58478 34.864 6.07278 35.32C6.56878 35.776 6.81678 36.364 6.81678 37.084ZM3.92478 38.608C4.53278 38.608 4.98078 38.476 5.26878 38.212C5.55678 37.948 5.70078 37.572 5.70078 37.084C5.70078 36.052 5.10878 35.536 3.92478 35.536H2.31678V38.608H3.92478ZM9.266 37.492C9.458 37.116 9.73 36.824 10.082 36.616C10.442 36.408 10.878 36.304 11.39 36.304V37.432H11.102C9.878 37.432 9.266 38.096 9.266 39.424V43H8.174V36.424H9.266V37.492ZM15.5186 43.108C14.9026 43.108 14.3426 42.968 13.8386 42.688C13.3426 42.408 12.9506 42.012 12.6626 41.5C12.3826 40.98 12.2426 40.38 12.2426 39.7C12.2426 39.028 12.3866 38.436 12.6746 37.924C12.9706 37.404 13.3706 37.008 13.8746 36.736C14.3786 36.456 14.9426 36.316 15.5666 36.316C16.1906 36.316 16.7546 36.456 17.2586 36.736C17.7626 37.008 18.1586 37.4 18.4466 37.912C18.7426 38.424 18.8906 39.02 18.8906 39.7C18.8906 40.38 18.7386 40.98 18.4346 41.5C18.1386 42.012 17.7346 42.408 17.2226 42.688C16.7106 42.968 16.1426 43.108 15.5186 43.108ZM15.5186 42.148C15.9106 42.148 16.2786 42.056 16.6226 41.872C16.9666 41.688 17.2426 41.412 17.4506 41.044C17.6666 40.676 17.7746 40.228 17.7746 39.7C17.7746 39.172 17.6706 38.724 17.4626 38.356C17.2546 37.988 16.9826 37.716 16.6466 37.54C16.3106 37.356 15.9466 37.264 15.5546 37.264C15.1546 37.264 14.7866 37.356 14.4506 37.54C14.1226 37.716 13.8586 37.988 13.6586 38.356C13.4586 38.724 13.3586 39.172 13.3586 39.7C13.3586 40.236 13.4546 40.688 13.6466 41.056C13.8466 41.424 14.1106 41.7 14.4386 41.884C14.7666 42.06 15.1266 42.148 15.5186 42.148ZM23.0023 37.324H21.6223V43H20.5303V37.324H19.6783V36.424H20.5303V35.956C20.5303 35.22 20.7183 34.684 21.0943 34.348C21.4783 34.004 22.0903 33.832 22.9303 33.832V34.744C22.4503 34.744 22.1103 34.84 21.9103 35.032C21.7183 35.216 21.6223 35.524 21.6223 35.956V36.424H23.0023V37.324ZM24.8396 35.356C24.6316 35.356 24.4556 35.284 24.3116 35.14C24.1676 34.996 24.0956 34.82 24.0956 34.612C24.0956 34.404 24.1676 34.228 24.3116 34.084C24.4556 33.94 24.6316 33.868 24.8396 33.868C25.0396 33.868 25.2076 33.94 25.3436 34.084C25.4876 34.228 25.5596 34.404 25.5596 34.612C25.5596 34.82 25.4876 34.996 25.3436 35.14C25.2076 35.284 25.0396 35.356 24.8396 35.356ZM25.3676 36.424V43H24.2756V36.424H25.3676ZM28.3207 34.12V43H27.2287V34.12H28.3207ZM36.1818 39.46C36.1818 39.668 36.1698 39.888 36.1458 40.12H30.8898C30.9298 40.768 31.1498 41.276 31.5498 41.644C31.9578 42.004 32.4498 42.184 33.0258 42.184C33.4978 42.184 33.8898 42.076 34.2018 41.86C34.5218 41.636 34.7458 41.34 34.8738 40.972H36.0498C35.8738 41.604 35.5218 42.12 34.9938 42.52C34.4658 42.912 33.8098 43.108 33.0258 43.108C32.4018 43.108 31.8418 42.968 31.3458 42.688C30.8578 42.408 30.4738 42.012 30.1938 41.5C29.9138 40.98 29.7738 40.38 29.7738 39.7C29.7738 39.02 29.9098 38.424 30.1818 37.912C30.4538 37.4 30.8338 37.008 31.3218 36.736C31.8178 36.456 32.3858 36.316 33.0258 36.316C33.6498 36.316 34.2018 36.452 34.6818 36.724C35.1618 36.996 35.5298 37.372 35.7858 37.852C36.0498 38.324 36.1818 38.86 36.1818 39.46ZM35.0538 39.232C35.0538 38.816 34.9618 38.46 34.7778 38.164C34.5938 37.86 34.3418 37.632 34.0218 37.48C33.7098 37.32 33.3618 37.24 32.9778 37.24C32.4258 37.24 31.9538 37.416 31.5618 37.768C31.1778 38.12 30.9578 38.608 30.9018 39.232H35.0538Z" fill="#707699"/>
</svg>
