<svg width="22" height="22" viewBox="0 0 22 22" fill="none" xmlns="http://www.w3.org/2000/svg">
<path d="M11 0.03125C4.94148 0.03125 0.03125 4.94148 0.03125 11C0.03125 17.0585 4.94148 21.9688 11 21.9688C17.0585 21.9688 21.9688 17.0585 21.9688 11C21.9688 4.94148 17.0585 0.03125 11 0.03125ZM11 5.51562C12.704 5.51562 14.085 6.897 14.085 8.60059C14.085 10.3042 12.7053 11.6855 11 11.6855C9.29642 11.6855 7.91504 10.3042 7.91504 8.60059C7.91504 6.897 9.2947 5.51562 11 5.51562ZM11 19.2266C8.73213 19.2266 6.67677 18.3041 5.18571 16.8147C5.87982 15.0233 7.59369 13.7422 9.62891 13.7422H12.3711C14.408 13.7422 16.1219 15.0224 16.8143 16.8147C15.3232 18.3054 13.2666 19.2266 11 19.2266Z" fill="#707699"/>
</svg>
