<svg width="28" height="36" viewBox="0 0 28 36" fill="none" xmlns="http://www.w3.org/2000/svg">
<circle cx="14" cy="34" r="2" fill="#006EE3"/>
<path d="M14 1.20312C6.93173 1.20312 1.20312 6.93173 1.20312 14C1.20312 21.0683 6.93173 26.7969 14 26.7969C21.0683 26.7969 26.7969 21.0683 26.7969 14C26.7969 6.93173 21.0683 1.20312 14 1.20312ZM14 7.60156C15.988 7.60156 17.5991 9.21317 17.5991 11.2007C17.5991 13.1882 15.9895 14.7998 14 14.7998C12.0125 14.7998 10.4009 13.1882 10.4009 11.2007C10.4009 9.21317 12.0105 7.60156 14 7.60156ZM14 23.5977C11.3541 23.5977 8.95623 22.5214 7.21666 20.7838C8.02646 18.6939 10.026 17.1992 12.4004 17.1992H15.5996C17.976 17.1992 19.9755 18.6929 20.7833 20.7838C19.0438 22.5229 16.6444 23.5977 14 23.5977Z" fill="#006EE3"/>
</svg>
