<svg width="45" height="58" viewBox="0 0 45 58" fill="none" xmlns="http://www.w3.org/2000/svg">
<circle cx="22" cy="34" r="2" fill="#006EE3"/>
<path d="M22 1.20312C14.9317 1.20312 9.20312 6.93173 9.20312 14C9.20312 21.0683 14.9317 26.7969 22 26.7969C29.0683 26.7969 34.7969 21.0683 34.7969 14C34.7969 6.93173 29.0683 1.20312 22 1.20312ZM22 7.60156C23.988 7.60156 25.5991 9.21317 25.5991 11.2007C25.5991 13.1882 23.9895 14.7998 22 14.7998C20.0125 14.7998 18.4009 13.1882 18.4009 11.2007C18.4009 9.21317 20.0105 7.60156 22 7.60156ZM22 23.5977C19.3541 23.5977 16.9562 22.5214 15.2167 20.7838C16.0265 18.6939 18.026 17.1992 20.4004 17.1992H23.5996C25.976 17.1992 27.9755 18.6929 28.7833 20.7838C27.0438 22.5229 24.6444 23.5977 22 23.5977Z" fill="#006EE3"/>
<path d="M8.40938 47.252C8.40938 47.7747 8.28338 48.2647 8.03138 48.722C7.78872 49.1793 7.40138 49.548 6.86938 49.828C6.34672 50.108 5.68405 50.248 4.88138 50.248H3.24338V54H1.28338V44.228H4.88138C5.63738 44.228 6.28138 44.3587 6.81338 44.62C7.34538 44.8813 7.74205 45.2407 8.00338 45.698C8.27405 46.1553 8.40938 46.6733 8.40938 47.252ZM4.79738 48.666C5.33872 48.666 5.74005 48.5447 6.00138 48.302C6.26272 48.05 6.39338 47.7 6.39338 47.252C6.39338 46.3 5.86138 45.824 4.79738 45.824H3.24338V48.666H4.79738ZM11.761 47.448C12.013 47.0373 12.3396 46.7153 12.741 46.482C13.1516 46.2487 13.6183 46.132 14.141 46.132V48.19H13.623C13.007 48.19 12.5403 48.3347 12.223 48.624C11.915 48.9133 11.761 49.4173 11.761 50.136V54H9.80096V46.244H11.761V47.448ZM18.9051 54.126C18.1585 54.126 17.4865 53.9627 16.8891 53.636C16.2918 53.3 15.8205 52.8287 15.4751 52.222C15.1391 51.6153 14.9711 50.9153 14.9711 50.122C14.9711 49.3287 15.1438 48.6287 15.4891 48.022C15.8438 47.4153 16.3245 46.9487 16.9311 46.622C17.5378 46.286 18.2145 46.118 18.9611 46.118C19.7078 46.118 20.3845 46.286 20.9911 46.622C21.5978 46.9487 22.0738 47.4153 22.4191 48.022C22.7738 48.6287 22.9511 49.3287 22.9511 50.122C22.9511 50.9153 22.7691 51.6153 22.4051 52.222C22.0505 52.8287 21.5651 53.3 20.9491 53.636C20.3425 53.9627 19.6611 54.126 18.9051 54.126ZM18.9051 52.418C19.2598 52.418 19.5911 52.334 19.8991 52.166C20.2165 51.9887 20.4685 51.7273 20.6551 51.382C20.8418 51.0367 20.9351 50.6167 20.9351 50.122C20.9351 49.3847 20.7391 48.82 20.3471 48.428C19.9645 48.0267 19.4931 47.826 18.9331 47.826C18.3731 47.826 17.9018 48.0267 17.5191 48.428C17.1458 48.82 16.9591 49.3847 16.9591 50.122C16.9591 50.8593 17.1411 51.4287 17.5051 51.83C17.8785 52.222 18.3451 52.418 18.9051 52.418ZM27.9449 47.854H26.5869V54H24.5989V47.854H23.7169V46.244H24.5989V45.852C24.5989 44.9 24.8695 44.2 25.4109 43.752C25.9522 43.304 26.7689 43.094 27.8609 43.122V44.774C27.3849 44.7647 27.0535 44.844 26.8669 45.012C26.6802 45.18 26.5869 45.4833 26.5869 45.922V46.244H27.9449V47.854ZM30.209 45.32C29.8637 45.32 29.5744 45.2127 29.341 44.998C29.117 44.774 29.005 44.4987 29.005 44.172C29.005 43.8453 29.117 43.5747 29.341 43.36C29.5744 43.136 29.8637 43.024 30.209 43.024C30.5544 43.024 30.839 43.136 31.063 43.36C31.2964 43.5747 31.413 43.8453 31.413 44.172C31.413 44.4987 31.2964 44.774 31.063 44.998C30.839 45.2127 30.5544 45.32 30.209 45.32ZM31.175 46.244V54H29.215V46.244H31.175ZM35.0715 43.64V54H33.1115V43.64H35.0715ZM44.218 49.954C44.218 50.234 44.1993 50.486 44.162 50.71H38.492C38.5387 51.27 38.7347 51.7087 39.08 52.026C39.4253 52.3433 39.85 52.502 40.354 52.502C41.082 52.502 41.6 52.1893 41.908 51.564H44.022C43.798 52.3107 43.3687 52.9267 42.734 53.412C42.0993 53.888 41.32 54.126 40.396 54.126C39.6493 54.126 38.9773 53.9627 38.38 53.636C37.792 53.3 37.33 52.8287 36.994 52.222C36.6673 51.6153 36.504 50.9153 36.504 50.122C36.504 49.3193 36.6673 48.6147 36.994 48.008C37.3207 47.4013 37.778 46.9347 38.366 46.608C38.954 46.2813 39.6307 46.118 40.396 46.118C41.1333 46.118 41.7913 46.2767 42.37 46.594C42.958 46.9113 43.4107 47.364 43.728 47.952C44.0547 48.5307 44.218 49.198 44.218 49.954ZM42.188 49.394C42.1787 48.89 41.9967 48.4887 41.642 48.19C41.2873 47.882 40.8533 47.728 40.34 47.728C39.8547 47.728 39.444 47.8773 39.108 48.176C38.7813 48.4653 38.5807 48.8713 38.506 49.394H42.188Z" fill="#006EE3"/>
</svg>
