<svg width="24" height="24" viewBox="0 0 24 24" fill="none" xmlns="http://www.w3.org/2000/svg">
<path d="M22.7359 20.2464L17.4756 14.9867C18.6718 13.2111 19.262 10.9925 18.946 8.62854C18.4072 4.60753 15.1113 1.33527 11.0859 0.825695C5.10099 0.0684658 0.0683549 5.10055 0.825711 11.0848C1.33548 15.1115 4.60854 18.4097 8.63043 18.9458C10.9947 19.2617 13.2139 18.6718 14.9893 17.4755L20.2496 22.7352C20.936 23.4216 22.0492 23.4216 22.7356 22.7352C23.4214 22.048 23.4214 20.9319 22.7359 20.2464ZM4.22604 9.88964C4.22604 6.78831 6.74939 4.26523 9.85106 4.26523C12.9527 4.26523 15.4761 6.78831 15.4761 9.88964C15.4761 12.991 12.9527 15.514 9.85106 15.514C6.74939 15.514 4.22604 12.9918 4.22604 9.88964Z" fill="#707699"/>
</svg>
