<svg width="18" height="22" viewBox="0 0 18 22" fill="none" xmlns="http://www.w3.org/2000/svg">
<path d="M11.412 10.1553C10.73 10.7093 9.89893 11.029 8.98271 11.029C8.06649 11.029 7.21405 10.7094 6.55346 10.1553C5.29625 11.029 4.63571 12.6058 4.57178 14.4384H13.3938C13.3085 12.6058 12.6692 11.0076 11.412 10.1553Z" fill="#3B3F54"/>
<path d="M11.6251 7.21453C11.6251 8.6739 10.4421 9.85691 8.98271 9.85691C7.52337 9.85691 6.34033 8.67387 6.34033 7.21453C6.34033 5.75515 7.52337 4.57214 8.98271 4.57214C10.4421 4.57214 11.6251 5.75519 11.6251 7.21453Z" fill="#3B3F54"/>
<path d="M14.3527 0.885742H3.61282C1.92946 0.885742 0.565674 2.24953 0.565674 3.93289V18.0822C0.565674 19.7656 1.92946 21.1294 3.61282 21.1294H14.3527C16.036 21.1294 17.3998 19.7656 17.3998 18.0822L17.4 3.93289C17.4 2.24953 16.0362 0.885742 14.3528 0.885742H14.3527ZM3.61282 2.52659H14.3527C15.1198 2.52659 15.7591 3.14448 15.7591 3.93304V15.6105H2.22776V3.93304C2.22776 3.16606 2.84565 2.52674 3.61278 2.52674L3.61282 2.52659Z" fill="#3B3F54"/>
</svg>
