<svg width="59" height="59" viewBox="0 0 59 59" fill="none" xmlns="http://www.w3.org/2000/svg">
<circle cx="29" cy="32" r="2" fill="#006EE3"/>
<path d="M31.9545 0.8125V6.90625H37.8636L31.9545 0.8125ZM30.4773 6.90625V0.8125H22.3523C21.1284 0.8125 20.1364 1.83558 20.1364 3.09766V22.9023C20.1364 24.1639 21.1284 25.1875 22.3523 25.1875H35.6477C36.8716 25.1875 37.8636 24.1644 37.8636 22.9023V8.42969H31.9961C31.1374 8.42969 30.4773 7.7489 30.4773 6.90625ZM32.6932 20.6172H25.3068C24.9006 20.6172 24.5682 20.2744 24.5682 19.8555C24.5682 19.4365 24.9006 19.0938 25.3068 19.0938H32.6932C33.1011 19.0938 33.4318 19.4347 33.4318 19.8555C33.4318 20.2744 33.0994 20.6172 32.6932 20.6172ZM32.6932 17.5703H25.3068C24.9006 17.5703 24.5682 17.2275 24.5682 16.8086C24.5682 16.3896 24.9006 16.0469 25.3068 16.0469H32.6932C33.1011 16.0469 33.4318 16.3878 33.4318 16.8086C33.4318 17.2275 33.0994 17.5703 32.6932 17.5703ZM33.4318 13.7617C33.4318 14.1807 33.0994 14.5234 32.6932 14.5234H25.3068C24.9006 14.5234 24.5682 14.1807 24.5682 13.7617C24.5682 13.3428 24.9006 13 25.3068 13H32.6932C33.0994 13 33.4318 13.3428 33.4318 13.7617Z" fill="#006EE3"/>
<path d="M4.41129 55.098C3.72996 55.098 3.11396 54.9813 2.56329 54.748C2.02196 54.5147 1.59262 54.1787 1.27529 53.74C0.957956 53.3013 0.794622 52.7833 0.785289 52.186H2.88529C2.91329 52.5873 3.05329 52.9047 3.30529 53.138C3.56662 53.3713 3.92129 53.488 4.36929 53.488C4.82662 53.488 5.18596 53.3807 5.44729 53.166C5.70862 52.942 5.83929 52.6527 5.83929 52.298C5.83929 52.0087 5.75062 51.7707 5.57329 51.584C5.39596 51.3973 5.17196 51.2527 4.90129 51.15C4.63996 51.038 4.27596 50.9167 3.80929 50.786C3.17462 50.5993 2.65662 50.4173 2.25529 50.24C1.86329 50.0533 1.52262 49.778 1.23329 49.414C0.953289 49.0407 0.813289 48.546 0.813289 47.93C0.813289 47.3513 0.957956 46.8473 1.24729 46.418C1.53662 45.9887 1.94262 45.662 2.46529 45.438C2.98796 45.2047 3.58529 45.088 4.25729 45.088C5.26529 45.088 6.08196 45.3353 6.70729 45.83C7.34196 46.3153 7.69196 46.9967 7.75729 47.874H5.60129C5.58262 47.538 5.43796 47.2627 5.16729 47.048C4.90596 46.824 4.55596 46.712 4.11729 46.712C3.73462 46.712 3.42662 46.81 3.19329 47.006C2.96929 47.202 2.85729 47.4867 2.85729 47.86C2.85729 48.1213 2.94129 48.3407 3.10929 48.518C3.28662 48.686 3.50129 48.826 3.75329 48.938C4.01462 49.0407 4.37862 49.162 4.84529 49.302C5.47996 49.4887 5.99796 49.6753 6.39929 49.862C6.80062 50.0487 7.14596 50.3287 7.43529 50.702C7.72462 51.0753 7.86929 51.5653 7.86929 52.172C7.86929 52.6947 7.73396 53.18 7.46329 53.628C7.19262 54.076 6.79596 54.4353 6.27329 54.706C5.75062 54.9673 5.12996 55.098 4.41129 55.098ZM16.8905 47.244V55H14.9165V54.02C14.6645 54.356 14.3332 54.622 13.9225 54.818C13.5212 55.0047 13.0825 55.098 12.6065 55.098C11.9999 55.098 11.4632 54.972 10.9965 54.72C10.5299 54.4587 10.1612 54.0807 9.89054 53.586C9.62921 53.082 9.49854 52.4847 9.49854 51.794V47.244H11.4585V51.514C11.4585 52.13 11.6125 52.606 11.9205 52.942C12.2285 53.2687 12.6485 53.432 13.1805 53.432C13.7219 53.432 14.1465 53.2687 14.4545 52.942C14.7625 52.606 14.9165 52.13 14.9165 51.514V47.244H16.8905ZM20.7844 48.364C21.0364 48.0093 21.3817 47.7153 21.8204 47.482C22.2684 47.2393 22.7771 47.118 23.3464 47.118C24.0091 47.118 24.6064 47.2813 25.1384 47.608C25.6797 47.9347 26.1044 48.4013 26.4124 49.008C26.7297 49.6053 26.8884 50.3007 26.8884 51.094C26.8884 51.8873 26.7297 52.592 26.4124 53.208C26.1044 53.8147 25.6797 54.286 25.1384 54.622C24.6064 54.958 24.0091 55.126 23.3464 55.126C22.7771 55.126 22.2731 55.0093 21.8344 54.776C21.4051 54.5427 21.0551 54.2487 20.7844 53.894V58.696H18.8244V47.244H20.7844V48.364ZM24.8864 51.094C24.8864 50.6273 24.7884 50.226 24.5924 49.89C24.4057 49.5447 24.1537 49.2833 23.8364 49.106C23.5284 48.9287 23.1924 48.84 22.8284 48.84C22.4737 48.84 22.1377 48.9333 21.8204 49.12C21.5124 49.2973 21.2604 49.5587 21.0644 49.904C20.8777 50.2493 20.7844 50.6553 20.7844 51.122C20.7844 51.5887 20.8777 51.9947 21.0644 52.34C21.2604 52.6853 21.5124 52.9513 21.8204 53.138C22.1377 53.3153 22.4737 53.404 22.8284 53.404C23.1924 53.404 23.5284 53.3107 23.8364 53.124C24.1537 52.9373 24.4057 52.6713 24.5924 52.326C24.7884 51.9807 24.8864 51.57 24.8864 51.094ZM30.2727 48.364C30.5247 48.0093 30.87 47.7153 31.3087 47.482C31.7567 47.2393 32.2653 47.118 32.8347 47.118C33.4973 47.118 34.0947 47.2813 34.6267 47.608C35.168 47.9347 35.5927 48.4013 35.9007 49.008C36.218 49.6053 36.3767 50.3007 36.3767 51.094C36.3767 51.8873 36.218 52.592 35.9007 53.208C35.5927 53.8147 35.168 54.286 34.6267 54.622C34.0947 54.958 33.4973 55.126 32.8347 55.126C32.2653 55.126 31.7613 55.0093 31.3227 54.776C30.8933 54.5427 30.5433 54.2487 30.2727 53.894V58.696H28.3127V47.244H30.2727V48.364ZM34.3747 51.094C34.3747 50.6273 34.2767 50.226 34.0807 49.89C33.894 49.5447 33.642 49.2833 33.3247 49.106C33.0167 48.9287 32.6807 48.84 32.3167 48.84C31.962 48.84 31.626 48.9333 31.3087 49.12C31.0007 49.2973 30.7487 49.5587 30.5527 49.904C30.366 50.2493 30.2727 50.6553 30.2727 51.122C30.2727 51.5887 30.366 51.9947 30.5527 52.34C30.7487 52.6853 31.0007 52.9513 31.3087 53.138C31.626 53.3153 31.962 53.404 32.3167 53.404C32.6807 53.404 33.0167 53.3107 33.3247 53.124C33.642 52.9373 33.894 52.6713 34.0807 52.326C34.2767 51.9807 34.3747 51.57 34.3747 51.094ZM39.761 44.64V55H37.801V44.64H39.761ZM42.6914 46.32C42.3461 46.32 42.0568 46.2127 41.8234 45.998C41.5994 45.774 41.4874 45.4987 41.4874 45.172C41.4874 44.8453 41.5994 44.5747 41.8234 44.36C42.0568 44.136 42.3461 44.024 42.6914 44.024C43.0368 44.024 43.3214 44.136 43.5454 44.36C43.7788 44.5747 43.8954 44.8453 43.8954 45.172C43.8954 45.4987 43.7788 45.774 43.5454 45.998C43.3214 46.2127 43.0368 46.32 42.6914 46.32ZM43.6574 47.244V55H41.6974V47.244H43.6574ZM52.8039 50.954C52.8039 51.234 52.7853 51.486 52.7479 51.71H47.0779C47.1246 52.27 47.3206 52.7087 47.6659 53.026C48.0113 53.3433 48.4359 53.502 48.9399 53.502C49.6679 53.502 50.1859 53.1893 50.4939 52.564H52.6079C52.3839 53.3107 51.9546 53.9267 51.3199 54.412C50.6853 54.888 49.9059 55.126 48.9819 55.126C48.2353 55.126 47.5633 54.9627 46.9659 54.636C46.3779 54.3 45.9159 53.8287 45.5799 53.222C45.2533 52.6153 45.0899 51.9153 45.0899 51.122C45.0899 50.3193 45.2533 49.6147 45.5799 49.008C45.9066 48.4013 46.3639 47.9347 46.9519 47.608C47.5399 47.2813 48.2166 47.118 48.9819 47.118C49.7193 47.118 50.3773 47.2767 50.9559 47.594C51.5439 47.9113 51.9966 48.364 52.3139 48.952C52.6406 49.5307 52.8039 50.198 52.8039 50.954ZM50.7739 50.394C50.7646 49.89 50.5826 49.4887 50.2279 49.19C49.8733 48.882 49.4393 48.728 48.9259 48.728C48.4406 48.728 48.0299 48.8773 47.6939 49.176C47.3673 49.4653 47.1666 49.8713 47.0919 50.394H50.7739ZM56.1946 48.448C56.4466 48.0373 56.7732 47.7153 57.1746 47.482C57.5852 47.2487 58.0519 47.132 58.5746 47.132V49.19H58.0566C57.4406 49.19 56.9739 49.3347 56.6566 49.624C56.3486 49.9133 56.1946 50.4173 56.1946 51.136V55H54.2346V47.244H56.1946V48.448Z" fill="#006EE3"/>
</svg>
