<svg width="49" height="48" viewBox="0 0 49 48" fill="none" xmlns="http://www.w3.org/2000/svg">
<path d="M26.5 0.6875V5.84375H31.5L26.5 0.6875ZM25.25 5.84375V0.6875H18.375C17.3395 0.6875 16.5 1.55319 16.5 2.62109V19.3789C16.5 20.4464 17.3395 21.3125 18.375 21.3125H29.625C30.6605 21.3125 31.5 20.4468 31.5 19.3789V7.13281H26.5352C25.8086 7.13281 25.25 6.55676 25.25 5.84375ZM27.125 17.4453H20.875C20.5312 17.4453 20.25 17.1553 20.25 16.8008C20.25 16.4463 20.5312 16.1562 20.875 16.1562H27.125C27.4702 16.1562 27.75 16.4448 27.75 16.8008C27.75 17.1553 27.4688 17.4453 27.125 17.4453ZM27.125 14.8672H20.875C20.5312 14.8672 20.25 14.5771 20.25 14.2227C20.25 13.8682 20.5312 13.5781 20.875 13.5781H27.125C27.4702 13.5781 27.75 13.8666 27.75 14.2227C27.75 14.5771 27.4688 14.8672 27.125 14.8672ZM27.75 11.6445C27.75 11.999 27.4688 12.2891 27.125 12.2891H20.875C20.5312 12.2891 20.25 11.999 20.25 11.6445C20.25 11.29 20.5312 11 20.875 11H27.125C27.4688 11 27.75 11.29 27.75 11.6445Z" fill="#707699"/>
<path d="M3.69514 43.084C3.14314 43.084 2.64714 42.988 2.20714 42.796C1.77514 42.596 1.43514 42.324 1.18714 41.98C0.939141 41.628 0.811141 41.224 0.803141 40.768H1.96714C2.00714 41.16 2.16714 41.492 2.44714 41.764C2.73514 42.028 3.15114 42.16 3.69514 42.16C4.21514 42.16 4.62314 42.032 4.91914 41.776C5.22314 41.512 5.37514 41.176 5.37514 40.768C5.37514 40.448 5.28714 40.188 5.11114 39.988C4.93514 39.788 4.71514 39.636 4.45114 39.532C4.18714 39.428 3.83114 39.316 3.38314 39.196C2.83114 39.052 2.38714 38.908 2.05114 38.764C1.72314 38.62 1.43914 38.396 1.19914 38.092C0.967141 37.78 0.851141 37.364 0.851141 36.844C0.851141 36.388 0.967141 35.984 1.19914 35.632C1.43114 35.28 1.75514 35.008 2.17114 34.816C2.59514 34.624 3.07914 34.528 3.62314 34.528C4.40714 34.528 5.04714 34.724 5.54314 35.116C6.04714 35.508 6.33114 36.028 6.39514 36.676H5.19514C5.15514 36.356 4.98714 36.076 4.69114 35.836C4.39514 35.588 4.00314 35.464 3.51514 35.464C3.05914 35.464 2.68714 35.584 2.39914 35.824C2.11114 36.056 1.96714 36.384 1.96714 36.808C1.96714 37.112 2.05114 37.36 2.21914 37.552C2.39514 37.744 2.60714 37.892 2.85514 37.996C3.11114 38.092 3.46714 38.204 3.92314 38.332C4.47514 38.484 4.91914 38.636 5.25514 38.788C5.59114 38.932 5.87914 39.16 6.11914 39.472C6.35914 39.776 6.47914 40.192 6.47914 40.72C6.47914 41.128 6.37114 41.512 6.15514 41.872C5.93914 42.232 5.61914 42.524 5.19514 42.748C4.77114 42.972 4.27114 43.084 3.69514 43.084ZM13.9181 36.424V43H12.8261V42.028C12.6181 42.364 12.3261 42.628 11.9501 42.82C11.5821 43.004 11.1741 43.096 10.7261 43.096C10.2141 43.096 9.75411 42.992 9.34611 42.784C8.93811 42.568 8.61411 42.248 8.37411 41.824C8.14211 41.4 8.02611 40.884 8.02611 40.276V36.424H9.10611V40.132C9.10611 40.78 9.27011 41.28 9.59811 41.632C9.92611 41.976 10.3741 42.148 10.9421 42.148C11.5261 42.148 11.9861 41.968 12.3221 41.608C12.6581 41.248 12.8261 40.724 12.8261 40.036V36.424H13.9181ZM16.8539 37.636C17.0699 37.26 17.3899 36.948 17.8139 36.7C18.2459 36.444 18.7459 36.316 19.3139 36.316C19.8979 36.316 20.4259 36.456 20.8979 36.736C21.3779 37.016 21.7539 37.412 22.0259 37.924C22.2979 38.428 22.4339 39.016 22.4339 39.688C22.4339 40.352 22.2979 40.944 22.0259 41.464C21.7539 41.984 21.3779 42.388 20.8979 42.676C20.4259 42.964 19.8979 43.108 19.3139 43.108C18.7539 43.108 18.2579 42.984 17.8259 42.736C17.4019 42.48 17.0779 42.164 16.8539 41.788V46.12H15.7619V36.424H16.8539V37.636ZM21.3179 39.688C21.3179 39.192 21.2179 38.76 21.0179 38.392C20.8179 38.024 20.5459 37.744 20.2019 37.552C19.8659 37.36 19.4939 37.264 19.0859 37.264C18.6859 37.264 18.3139 37.364 17.9699 37.564C17.6339 37.756 17.3619 38.04 17.1539 38.416C16.9539 38.784 16.8539 39.212 16.8539 39.7C16.8539 40.196 16.9539 40.632 17.1539 41.008C17.3619 41.376 17.6339 41.66 17.9699 41.86C18.3139 42.052 18.6859 42.148 19.0859 42.148C19.4939 42.148 19.8659 42.052 20.2019 41.86C20.5459 41.66 20.8179 41.376 21.0179 41.008C21.2179 40.632 21.3179 40.192 21.3179 39.688ZM24.9633 37.636C25.1793 37.26 25.4993 36.948 25.9233 36.7C26.3553 36.444 26.8553 36.316 27.4233 36.316C28.0073 36.316 28.5353 36.456 29.0073 36.736C29.4873 37.016 29.8633 37.412 30.1353 37.924C30.4073 38.428 30.5433 39.016 30.5433 39.688C30.5433 40.352 30.4073 40.944 30.1353 41.464C29.8633 41.984 29.4873 42.388 29.0073 42.676C28.5353 42.964 28.0073 43.108 27.4233 43.108C26.8633 43.108 26.3673 42.984 25.9353 42.736C25.5113 42.48 25.1873 42.164 24.9633 41.788V46.12H23.8713V36.424H24.9633V37.636ZM29.4273 39.688C29.4273 39.192 29.3273 38.76 29.1273 38.392C28.9273 38.024 28.6553 37.744 28.3113 37.552C27.9753 37.36 27.6033 37.264 27.1953 37.264C26.7953 37.264 26.4233 37.364 26.0793 37.564C25.7433 37.756 25.4713 38.04 25.2633 38.416C25.0633 38.784 24.9633 39.212 24.9633 39.7C24.9633 40.196 25.0633 40.632 25.2633 41.008C25.4713 41.376 25.7433 41.66 26.0793 41.86C26.4233 42.052 26.7953 42.148 27.1953 42.148C27.6033 42.148 27.9753 42.052 28.3113 41.86C28.6553 41.66 28.9273 41.376 29.1273 41.008C29.3273 40.632 29.4273 40.192 29.4273 39.688ZM33.0726 34.12V43H31.9806V34.12H33.0726ZM35.4978 35.356C35.2898 35.356 35.1138 35.284 34.9698 35.14C34.8258 34.996 34.7538 34.82 34.7538 34.612C34.7538 34.404 34.8258 34.228 34.9698 34.084C35.1138 33.94 35.2898 33.868 35.4978 33.868C35.6978 33.868 35.8658 33.94 36.0018 34.084C36.1458 34.228 36.2178 34.404 36.2178 34.612C36.2178 34.82 36.1458 34.996 36.0018 35.14C35.8658 35.284 35.6978 35.356 35.4978 35.356ZM36.0258 36.424V43H34.9338V36.424H36.0258ZM43.8869 39.46C43.8869 39.668 43.8749 39.888 43.8509 40.12H38.5949C38.6349 40.768 38.8549 41.276 39.2549 41.644C39.6629 42.004 40.1549 42.184 40.7309 42.184C41.2029 42.184 41.5949 42.076 41.9069 41.86C42.2269 41.636 42.4509 41.34 42.5789 40.972H43.7549C43.5789 41.604 43.2269 42.12 42.6989 42.52C42.1709 42.912 41.5149 43.108 40.7309 43.108C40.1069 43.108 39.5469 42.968 39.0509 42.688C38.5629 42.408 38.1789 42.012 37.8989 41.5C37.6189 40.98 37.4789 40.38 37.4789 39.7C37.4789 39.02 37.6149 38.424 37.8869 37.912C38.1589 37.4 38.5389 37.008 39.0269 36.736C39.5229 36.456 40.0909 36.316 40.7309 36.316C41.3549 36.316 41.9069 36.452 42.3869 36.724C42.8669 36.996 43.2349 37.372 43.4909 37.852C43.7549 38.324 43.8869 38.86 43.8869 39.46ZM42.7589 39.232C42.7589 38.816 42.6669 38.46 42.4829 38.164C42.2989 37.86 42.0469 37.632 41.7269 37.48C41.4149 37.32 41.0669 37.24 40.6829 37.24C40.1309 37.24 39.6589 37.416 39.2669 37.768C38.8829 38.12 38.6629 38.608 38.6069 39.232H42.7589ZM46.4203 37.492C46.6123 37.116 46.8843 36.824 47.2363 36.616C47.5963 36.408 48.0323 36.304 48.5443 36.304V37.432H48.2563C47.0323 37.432 46.4203 38.096 46.4203 39.424V43H45.3283V36.424H46.4203V37.492Z" fill="#707699"/>
</svg>
