<svg width="18" height="20" viewBox="0 0 18 20" fill="none" xmlns="http://www.w3.org/2000/svg">
<path d="M15.1942 13.7089V16.1816C15.1942 16.8643 14.6394 17.4179 13.9554 17.4179H4.04464C3.36057 17.4179 2.8058 16.8643 2.8058 16.1816V13.7089C2.8058 13.0262 2.25104 12.4726 1.56696 12.4726C0.882893 12.4726 0.328125 13.0262 0.328125 13.7089V16.1816C0.328125 18.2301 1.99204 19.8906 4.04464 19.8906H13.9554C16.008 19.8906 17.6719 18.2301 17.6719 16.1816V13.7089C17.6719 13.0262 17.1171 12.4726 16.433 12.4726C15.749 12.4726 15.1942 13.025 15.1942 13.7089ZM8.12507 0.47132L3.16971 5.4167C2.6854 5.90003 2.68618 6.68241 3.16971 7.16497C3.65363 7.64791 4.43759 7.64791 4.92151 7.16497L7.76116 4.332V12.4726C7.76116 13.156 8.31515 13.7089 9 13.7089C9.68485 13.7089 10.2388 13.156 10.2388 12.4726V4.332L13.0797 7.16709C13.5636 7.65004 14.3475 7.65004 14.8314 7.16709C15.3154 6.68414 15.3154 5.90177 14.8314 5.41882L9.87609 0.473445C9.39101 -0.011627 8.60899 -0.011627 8.12507 0.47132Z" fill="#3B3F54"/>
</svg>
