<svg width="63" height="18" viewBox="0 0 63 18" fill="none" xmlns="http://www.w3.org/2000/svg">
<path d="M9.29364 4.636L6.13764 13H4.87764L1.72164 4.636H2.88564L5.51364 11.848L8.14164 4.636H9.29364ZM11.055 5.356C10.847 5.356 10.671 5.284 10.527 5.14C10.383 4.996 10.311 4.82 10.311 4.612C10.311 4.404 10.383 4.228 10.527 4.084C10.671 3.94 10.847 3.868 11.055 3.868C11.255 3.868 11.423 3.94 11.559 4.084C11.703 4.228 11.775 4.404 11.775 4.612C11.775 4.82 11.703 4.996 11.559 5.14C11.423 5.284 11.255 5.356 11.055 5.356ZM11.583 6.424V13H10.491V6.424H11.583ZM19.4441 9.46C19.4441 9.668 19.4321 9.888 19.4081 10.12H14.1521C14.1921 10.768 14.4121 11.276 14.8121 11.644C15.2201 12.004 15.7121 12.184 16.2881 12.184C16.7601 12.184 17.1521 12.076 17.4641 11.86C17.7841 11.636 18.0081 11.34 18.1361 10.972H19.3121C19.1361 11.604 18.7841 12.12 18.2561 12.52C17.7281 12.912 17.0721 13.108 16.2881 13.108C15.6641 13.108 15.1041 12.968 14.6081 12.688C14.1201 12.408 13.7361 12.012 13.4561 11.5C13.1761 10.98 13.0361 10.38 13.0361 9.7C13.0361 9.02 13.1721 8.424 13.4441 7.912C13.7161 7.4 14.0961 7.008 14.5841 6.736C15.0801 6.456 15.6481 6.316 16.2881 6.316C16.9121 6.316 17.4641 6.452 17.9441 6.724C18.4241 6.996 18.7921 7.372 19.0481 7.852C19.3121 8.324 19.4441 8.86 19.4441 9.46ZM18.3161 9.232C18.3161 8.816 18.2241 8.46 18.0401 8.164C17.8561 7.86 17.6041 7.632 17.2841 7.48C16.9721 7.32 16.6241 7.24 16.2401 7.24C15.6881 7.24 15.2161 7.416 14.8241 7.768C14.4401 8.12 14.2201 8.608 14.1641 9.232H18.3161ZM29.6455 6.424L27.5935 13H26.4655L24.8815 7.78L23.2975 13H22.1695L20.1055 6.424H21.2215L22.7335 11.944L24.3655 6.424H25.4815L27.0775 11.956L28.5655 6.424H29.6455ZM38.8725 11.14H35.2245L34.5525 13H33.4005L36.4245 4.684H37.6845L40.6965 13H39.5445L38.8725 11.14ZM38.5605 10.252L37.0485 6.028L35.5365 10.252H38.5605ZM43.1065 4.12V13H42.0145V4.12H43.1065ZM46.0596 4.12V13H44.9676V4.12H46.0596Z" fill="#006EE3"/>
<path d="M1.45764 14.2H46.9956V14.8H1.45764V14.2Z" fill="#006EE3"/>
<path d="M61.4965 7.12512C61.4965 7.31702 61.4232 7.50902 61.2767 7.65527L57.5267 11.4053C57.2338 11.6982 56.7592 11.6982 56.4662 11.4053L52.7162 7.65527C52.4232 7.36231 52.4232 6.8877 52.7162 6.59473C53.0092 6.30176 53.4838 6.30176 53.7767 6.59473L56.9965 9.81457L60.2168 6.59426C60.5097 6.30129 60.9844 6.30129 61.2773 6.59426C61.4238 6.74074 61.4965 6.93293 61.4965 7.12512Z" fill="#006EE3"/>
</svg>
