<svg width="15" height="20" viewBox="0 0 15 20" fill="none" xmlns="http://www.w3.org/2000/svg">
<path d="M10 0V5H15L10 0ZM8.75 5V0H1.875C0.839453 0 0 0.839453 0 1.875V18.125C0 19.1602 0.839453 20 1.875 20H13.125C14.1605 20 15 19.1605 15 18.125V6.25H10.0352C9.30859 6.25 8.75 5.69141 8.75 5ZM8.75 15C8.75 15.6902 8.19023 16.25 7.5 16.25H3.75C3.05977 16.25 2.5 15.6902 2.5 15V11.25C2.5 10.5598 3.05977 10 3.75 10H7.5C8.19023 10 8.75 10.5598 8.75 11.25V15ZM12.5 11.1289V15.125C12.5 15.616 11.9602 15.9152 11.5437 15.6551L10 14.6875V11.5625L11.5437 10.5977C11.9609 10.3359 12.5 10.6367 12.5 11.1289Z" fill="#3B3F54"/>
</svg>
